<svg xmlns="http://www.w3.org/2000/svg" viewBox="0 0 384.6 641.93"><defs><style>.cls-1{fill:#1d1e1b;}.cls-2{fill:#1d1d1b;}.cls-3{fill:none;}.cls-4{fill:#fff;}</style></defs><g id="Calque_2" data-name="Calque 2"><g id="Calque_1-2" data-name="Calque 1"><g id="Calque_2-2" data-name="Calque 2"><g id="Cheveux"><path class="cls-1" d="M264.57,99.42a.8.8,0,0,1-.41-.68Z"/><path class="cls-1" d="M357.56,267.67a51.79,51.79,0,0,1-1.72,10.79c-.12.41-.25.82-.4,1.23a21.91,21.91,0,0,1-1.31,3c-2.43,4.53-7,8.29-12.11,8.07-9.37-15.53-5.89-35.33-7.57-53.48a177.25,177.25,0,0,0-3.59-20.84L314,136.93c-1.88-8.83-4.44-18.66-12.1-23.23a45.69,45.69,0,0,1-4,12.44,14.3,14.3,0,0,0-7.78-13.34l-.95-5.26a23.27,23.27,0,0,0-16.56,4,49.91,49.91,0,0,0-4.38-12c-.55-1.07-1.3-2.23-2.47-2.39a1.61,1.61,0,0,0-1.63,1.59l-7.23-12.17a6.71,6.71,0,0,1-4.64,3.53,11.18,11.18,0,0,0-8.36-6.6c-2.29-.36-4.69,0-6.93-.63a17.85,17.85,0,0,1-4.75-2.64c-16-10.84-36.12-13.32-55.37-13.53-17.07-.19-34.36,1.22-50.5,6.88-22,7.73-40.69,22.88-58.85,37.75-5.41,4.42-10.94,9-14.34,15.16-8.59,15.54-1,35.4-5.55,52.63-2.09,8-6.69,15.08-9.5,22.86-3.79,10.47-4.19,21.85-4.56,33l-1.87,57.55c0,.28-.68,0-1.63-.51-.44-.24-.93-.53-1.45-.85a34.41,34.41,0,0,1-4.2-2.94,13.28,13.28,0,0,1-2.73-6.56c0-.29-.07-.59-.09-.89s-.05-.53-.07-.8c-.65-7.48-.28-15.3-.52-22.81l-1.68-51-.95-29c-.07-7.08,2.11-14,4.26-20.69l11.23-35.1c-1.05,1.8-4.12.61-4.61-1.42s.62-4.06,1.7-5.84q15.48-25.74,32.3-50.6l-9.88,2.66a9.22,9.22,0,0,1,2.9-5.22l-6.66,2.28,3.6-4.57a16.09,16.09,0,0,1-8.86-2.13,41.22,41.22,0,0,0,16.46-3.43,27.46,27.46,0,0,1-11.1-15.47l11-.52,7.69-2.9a3.84,3.84,0,0,1-1.23-5.29,4.36,4.36,0,0,1,.64-.78c2.38,2.56,7.54-.59,6.43-3.94l8.54-2.27-3.2-5.28c2.94-.44,5.44,2,8.25,3s7.07-1.7,5.3-4.13a33.75,33.75,0,0,0,12.54,2.1l-2.23-5.16,11-.33L114.12,8l7,3.7a19.52,19.52,0,0,1,1.59-9.89,15.59,15.59,0,0,0,12,5.61l.34-6.16c1.43,1.47,3,3,5,3.39s4.42-1.11,4.24-3.17A12.92,12.92,0,0,0,154.72,6l.81-5.82c2.78,1.82,5.69,3.68,9,4.09s7-1.11,8.16-4.27l9.7,7.5,2.55-5c-.15,2.76,3.15,4.62,5.8,4.05s4.68-2.7,6.52-4.72a27.83,27.83,0,0,0-.6,6.17A4.08,4.08,0,0,0,200,5l5.9,5.81-.4-7.28,10.81,9.82L219,6.54a61.41,61.41,0,0,0,9.76,14.57l1-4.86a63.75,63.75,0,0,1,8,11.43,11.78,11.78,0,0,0,2.93-7.09,21.78,21.78,0,0,0,5,9.3,24.57,24.57,0,0,1,6.6-10,121.32,121.32,0,0,1,9.26,22c1.55-2.73,5.08.86,5.85,4a2.05,2.05,0,0,1,2.46-1.83c1.29.29,2.19,1.46,3,2.55l9.14,13L287,50.5l3.37,5.44-.49-5.87c3.24,7.21,8.25,15.59,16,15.25a275.26,275.26,0,0,1,38.42,77.53c2,6.48,3.8,13.05,5.38,19.66A333.05,333.05,0,0,1,357.56,267.67Z"/></g><g id="Contours"><path class="cls-2" d="M278.62,259c0,.08-.25,0-.62,0l-.28,0a3.5,3.5,0,0,0-.64.15,4.06,4.06,0,0,0-.65.27,24.87,24.87,0,0,0-2.39,1.4,17.83,17.83,0,0,1-3.41,1.91,32.41,32.41,0,0,1-9.85,1.9,68.63,68.63,0,0,1-12.15-.66c-4.25-.57-8.25-1.16-11.91-1.72s-6.94-1.1-9.69-1.57L223.3,260c-.77-.18-1.41-.37-2-.53l-.6-.15-.18,0a6,6,0,0,0-1.69-.16c-.38,0-.57.13-.62.08s.11-.25.53-.43a4.31,4.31,0,0,1,1.88-.21,5.91,5.91,0,0,1,.7,0c.28,0,.59.08.9.13l1.23.2,3.63.34h.11l4.19.44,5.58.63,5.5.69,1.86.23,4.55.57a79.31,79.31,0,0,0,11.82.8c.35,0,.69,0,1,0l1.11-.06h0a35.87,35.87,0,0,0,7.27-1.29,20.82,20.82,0,0,0,3.29-1.51,16,16,0,0,1,2.71-1.13,1.52,1.52,0,0,1,.2-.06,2.87,2.87,0,0,1,.87-.13,3.23,3.23,0,0,1,.87.1,1.09,1.09,0,0,1,.45.27C278.62,258.94,278.64,259,278.62,259Z"/><path class="cls-2" d="M278.49,260.11c-.09.1-.56-.27-1.41-.93l-.74-.57a61.91,61.91,0,0,0-5.65-3.94,43.39,43.39,0,0,0-4.14-2.23c-.27-.14-.54-.26-.82-.38a43.3,43.3,0,0,0-4.26-1.68,39.47,39.47,0,0,0-12.2-2,38.94,38.94,0,0,0-7,.66q-.53.09-1.05.21a39.75,39.75,0,0,0-4.15,1.13c-.64.22-1.28.45-1.91.7a45.08,45.08,0,0,0-7.3,3.62l-.29.19c-2.32,1.52-4.1,2.9-5.34,3.89l-.92.73c-.71.56-1.11.85-1.19.76s.15-.37.59-.91c.16-.2.37-.44.62-.71a37.73,37.73,0,0,1,5.79-5,41.27,41.27,0,0,1,9.37-4.86,37.21,37.21,0,0,1,25.54-.06,41.27,41.27,0,0,1,9.39,4.82,36.93,36.93,0,0,1,5.43,4.54l.35.37.51.55C278.29,259.68,278.55,260.07,278.49,260.11Z"/><path class="cls-2" d="M245.24,263.29c-.1.1-.35,0-.74-.2a4.33,4.33,0,0,1-.66-.49,6,6,0,0,1-.75-.76,7.39,7.39,0,0,1-.61-.75l-.18-.25a11.81,11.81,0,0,1-.74-1.3c-.22-.5-.42-1-.6-1.54a16.22,16.22,0,0,1-.44-1.73,14.79,14.79,0,0,1-.19-1.76,15.14,15.14,0,0,1,0-1.65,11,11,0,0,1,.55-2.72c.11-.3.22-.6.35-.89l.05-.11a6,6,0,0,1,.4-.7c.26-.36.44-.54.55-.49s.12.3.08.72c0,.11,0,.24,0,.37s0,.24-.05.38c0,.29-.09.61-.11,1-.07.83-.09,1.67-.08,2.5a6.49,6.49,0,0,0,.11,1.46c0,.52.13,1,.23,1.55s.22,1,.37,1.52.31.94.45,1.39a6.39,6.39,0,0,0,.52,1.21q.24.54.51,1.05l.11.22c.12.23.24.43.35.63s.25.48.36.66S245.33,263.18,245.24,263.29Z"/><path class="cls-2" d="M267.05,255.55a9,9,0,0,1-.16,1.27,9.89,9.89,0,0,1-.36,1.32,9.52,9.52,0,0,1-.57,1.26,6.84,6.84,0,0,1-.68,1.09,7.16,7.16,0,0,1-1.51,1.55,4.1,4.1,0,0,1-.69.45l-.21.11h0a2.35,2.35,0,0,1-.37.14c-.41.15-.64.13-.72,0a.09.09,0,0,1,0-.09,1.06,1.06,0,0,1,.16-.54l.3-.48c.12-.19.27-.38.41-.61.31-.43.64-1,1-1.54.16-.31.34-.61.49-.95l.46-1.05a16.18,16.18,0,0,0,1-4c.06-.54.11-1,.14-1.31a.5.5,0,0,1,0-.12c0-.24.11-.4.2-.42s.25.11.43.41a1.76,1.76,0,0,1,.19.39,1.34,1.34,0,0,1,.07.18,3.69,3.69,0,0,1,.24.78A7.43,7.43,0,0,1,267.05,255.55Z"/><path class="cls-2" d="M257,254.77a3.88,3.88,0,0,1-4.22,3.09,3,3,0,0,1-1-.34,2.72,2.72,0,0,1-1-.48,3.69,3.69,0,0,1-1.2-4,3.82,3.82,0,0,1,7.42,1.73Z"/><path class="cls-3" d="M127.4,258.82h0v0h0l-6.71,1.83-.42.12v0l.38-.11Z"/><path class="cls-3" d="M127.72,257.84a3.79,3.79,0,0,1-.26.93l-.06,0a3.81,3.81,0,0,0,.28-1,1.93,1.93,0,0,0-.09-.89A2,2,0,0,1,127.72,257.84Z"/><path class="cls-3" d="M128.51,254.58a6.14,6.14,0,0,1,.84,1.32,3.61,3.61,0,0,1,.29,2.17v.17l1.39-.37,3.31-.84-1.58-.7C131.44,255.76,130,255.17,128.51,254.58Z"/><path class="cls-3" d="M118.74,253.88a16.83,16.83,0,0,0-.26-2l-.09-.53v0h-.06v0h0l.1.57a16.83,16.83,0,0,1,.26,2,20.55,20.55,0,0,1,0,2.22,11.12,11.12,0,0,1-.06,1.16,7,7,0,0,1-.13,1.2l-.13.9-.19.88a8.62,8.62,0,0,1-.28,1.14c-3.12.81-6.44,1.6-9.93,2.2a61.35,61.35,0,0,1-6.63.72h-1.25v0h1.35a61.35,61.35,0,0,0,6.63-.72c3.47-.59,6.77-1.38,9.88-2.19l.12,0a.09.09,0,0,0,0,0h0a9.62,9.62,0,0,0,.26-1.09l.08-.9.13-.9c.07-.4.1-.8.13-1.2a11.12,11.12,0,0,0,.06-1.16A20.55,20.55,0,0,0,118.74,253.88Zm-11.14,5.56a3.33,3.33,0,0,0,1.3-.28,3.4,3.4,0,0,1-1.42-6.61h.12l.15,0h-.27a3.46,3.46,0,1,0,.12,6.92Z"/><path class="cls-3" d="M89.67,263.19c.53.14,1.08.29,1.64.42-.57-.12-1.13-.24-1.65-.4-.83-.26-1.65-.46-2.42-.73s-1.5-.55-2.18-.85a43,43,0,0,1-5.9-3.09h0a44,44,0,0,0,5.89,3.08c.68.3,1.41.58,2.18.85S88.82,263,89.67,263.19Z"/><path class="cls-3" d="M95.75,250.59l-1.18.27,1.19-.28Z"/><path class="cls-3" d="M97.82,264.37a23.94,23.94,0,0,1-2.67-.18,18.51,18.51,0,0,1-2.84-.38l-.47-.1.48.08c.92.12,1.84.33,2.84.38a23.41,23.41,0,0,0,2.64.18h0Z"/><path class="cls-2" d="M118.27,251.25a58.88,58.88,0,0,0-8.67-1.51,53,53,0,0,0-6.79-.14,48.46,48.46,0,0,0-6,.72h0a.36.36,0,0,1,0-.1c0-.2.07-.38.1-.55v0a.76.76,0,0,0,0-.15c0-.14,0-.26.06-.37.06-.33.07-.53-.06-.53s-.67.66-1.17,2a0,0,0,0,1,0,0h0l-1.18.27-1.19.31c-.78.21-1.56.45-2.34.71a24.6,24.6,0,0,0-2.43.92l-.56.25-.08,0-.63.28-.06,0-.85.41a40.56,40.56,0,0,0-3.59,2l-1.42,1-1.14.86c-.46.32-.81.62-1.11.86l-.4-.23,0,0a11.65,11.65,0,0,1,1.07-1.15l1.07-1c.36-.35.87-.71,1.36-1.11a33.92,33.92,0,0,1,3.51-2.45,19.9,19.9,0,0,1,2.21-1.15c.79-.35,1.62-.73,2.49-1.06a44.33,44.33,0,0,1,5.73-1.71,48.13,48.13,0,0,1,6.53-.9,50.69,50.69,0,0,1,7.08.11,56.88,56.88,0,0,1,8,1.36c.09.28.18.63.24.89s.13.54.2.82Z"/><path class="cls-2" d="M136,256.61l-1.67.41h0l0,0-1.54-.68-1-.43-1-.44-2.2-.88-.23-.28c-.37-.41-.73-.78-1.08-1.15s-.72-.73-1.06-1l-.09-.08-.12-.11-.12-.1h0c2.54,1,5,2.09,7.45,3.31.7.31,1.34.63,2,1Z"/><path class="cls-2" d="M125.06,253.31h0l-1.19-.4-1.26-.42c-.21-.06-.42-.13-.63-.18a6.32,6.32,0,0,0-.62-.18c-.41-.13-.82-.24-1.24-.36l-.06-.23-.31-.95v0l-.11-.23-.27-.61v-.06c1.31.36,2.58.74,3.79,1.15l.41.14a0,0,0,0,0,0,0c.18.35.43.74.75,1.23l.35.53h0Z"/><path class="cls-2" d="M127.4,258.82v0l0,.14c-.28.66-.66,1.29-1,2-1.63.51-3.35,1.05-5.18,1.6-.55.17-1.12.33-1.69.49.07-.16.14-.32.2-.49a15.65,15.65,0,0,0,.53-1.77h0l.38-.11Z"/><path class="cls-2" d="M135.84,257.8h0c-1.26.44-2.73.93-4.39,1.48l-2.58.84h0l.22-.35c.07-.12.13-.25.19-.38a2.58,2.58,0,0,0,.18-.46,3.58,3.58,0,0,0,.11-.35c0-.12.05-.24.08-.36a0,0,0,0,0,0,0h0l1.35-.36,3.27-.83h0l0,0h0l.37.17Z"/><path class="cls-2" d="M99.82,266.39a33.7,33.7,0,0,1-4.81-.32,20.18,20.18,0,0,1-3-.51,27.07,27.07,0,0,1-2.76-.74c-.87-.31-1.72-.59-2.51-.9s-1.54-.65-2.23-1a32,32,0,0,1-6-3.9h0l.18-.13a4.17,4.17,0,0,0,.47-.36h0a44,44,0,0,0,5.89,3.08c.68.3,1.41.58,2.18.85s1.57.51,2.42.73c.53.14,1.08.29,1.64.42h.06l.45.09h0l.48.08c.92.12,1.84.33,2.84.38a23.41,23.41,0,0,0,2.64.18h0a11.76,11.76,0,0,0,1.83,1.9.52.52,0,0,0,.11.1Z"/><path class="cls-2" d="M118,261.38a.09.09,0,0,1,0,.05,1.51,1.51,0,0,0-.14.49c0,.14-.08.27-.13.4l-.19.54c-.07.2-.14.38-.21.53l-.1.23a86.78,86.78,0,0,1-8.87,2,59.35,59.35,0,0,1-6.67.7,11.44,11.44,0,0,1-.86-1,5.81,5.81,0,0,1-.58-.74c-.07-.08-.13-.17-.2-.26h0v0h1.35a61.35,61.35,0,0,0,6.63-.72c3.49-.6,6.81-1.39,9.93-2.2Z"/><polygon class="cls-2" points="137.16 257.37 135.85 257.83 135.81 257.81 134.73 257.22 134.33 257.03 134.33 257.02 134.35 257.02 136.02 256.61 136.03 256.61 137.03 257.26 137.16 257.37"/><path class="cls-2" d="M79.17,258.52a3.88,3.88,0,0,1-.42.39l-.19.14,0,0-.13-.1-.07-.06.16-.21.29-.35h0Z"/><path class="cls-2" d="M100,264.34H97.83a14.44,14.44,0,0,1-2.38-4.77,15.32,15.32,0,0,1-.56-4.42h0a14.35,14.35,0,0,1,.54-3.57c.09-.33.2-.66.32-1h.06a3.42,3.42,0,0,1,.77-.17h.24a9.44,9.44,0,0,0-.18,1.43,19.12,19.12,0,0,0,.65,7.18,17.87,17.87,0,0,0,2.68,5.32Z"/><path class="cls-2" d="M97,249.12c0,.12,0,.27,0,.44a.24.24,0,0,1,0,.08v0a3.88,3.88,0,0,0-.1.55s0,.07,0,.1v.07l-.23.09c-.28.05-.55.12-.82.18a.42.42,0,0,1,0-.1c.49-1.31,1.06-1.93,1.14-1.9S97,248.84,97,249.12Z"/><path class="cls-2" d="M101.66,266.35H99.77a.52.52,0,0,1-.11-.1,11.46,11.46,0,0,1-1.78-1.9H100l.16.26a5.81,5.81,0,0,0,.58.74l.86,1Z"/><path class="cls-2" d="M115.26,268.78l-.66-.12.24-.42A3.57,3.57,0,0,1,115.26,268.78Z"/><path class="cls-2" d="M120.71,256.11a9.26,9.26,0,0,1,0,1.29,9.8,9.8,0,0,1-.11,1.33,6.87,6.87,0,0,0-.14,1,5,5,0,0,1-.31,1v.07l-2.07.55h0l-.12,0-.07,0a8.62,8.62,0,0,0,.28-1.14l.19-.88.13-.9a7,7,0,0,0,.13-1.2,11.12,11.12,0,0,0,.06-1.16,20.55,20.55,0,0,0,0-2.22,16.83,16.83,0,0,0-.26-2l-.1-.57h.1l.56.15,1.09.27h0c.18.59.3,1.22.44,1.89A16.74,16.74,0,0,1,120.71,256.11Z"/><path class="cls-2" d="M120.08,251.76v0h0L119,251.5l-.56-.15h-.08v0l0-.3c-.07-.3-.1-.5-.17-.82s-.15-.61-.24-.89l1.47.38h0v.06l.24.59.11.25.31.95Z"/><path class="cls-2" d="M120.22,260.78a15.65,15.65,0,0,1-.53,1.77c-.06.17-.13.33-.2.49-.75.22-1.52.44-2.31.65l.1-.23c.06-.21.13-.41.2-.6l.19-.54c0-.13.09-.26.13-.4a3,3,0,0,0,.14-.49.09.09,0,0,0,0-.05l.12,0h0l2.07-.55Z"/><path d="M111,255.92a3.45,3.45,0,0,1-2.09,3.24h0a3.33,3.33,0,0,1-1.3.28,3.46,3.46,0,1,1-.12-6.92h.29A3.46,3.46,0,0,1,111,255.92Z"/><polygon class="cls-2" points="125.06 253.31 125.07 253.32 125.06 253.32 125.06 253.31"/><path class="cls-2" d="M129.6,258v.17l-2.14.56-.06,0a3.81,3.81,0,0,0,.28-1,1.93,1.93,0,0,0-.09-.89,1.67,1.67,0,0,0-.08-.2,14.21,14.21,0,0,0-1.7-2.39c-.13-.17-.27-.34-.39-.51l-.35-.48c.89.3,1.75.61,2.58.94.28.09.55.2.82.3h0a6.14,6.14,0,0,1,.84,1.32c.05.12.1.24.14.36A3.7,3.7,0,0,1,129.6,258Z"/><path class="cls-2" d="M128.47,254.56h0l-.82-.31c-.83-.33-1.69-.64-2.58-.94h0c-.12-.2-.25-.39-.37-.57h0l-.38-.53c-.32-.49-.57-.89-.76-1.24h0c.77.27,1.51.54,2.24.82l.07.06.08.09.12.11.09.08c.32.31.68.66,1,1s.71.74,1.08,1.15Z"/><path class="cls-2" d="M129.6,258.24c0,.12-.06.24-.09.36a3.58,3.58,0,0,1-.11.35,2.58,2.58,0,0,1-.18.46,4.54,4.54,0,0,1-.21.45l-.17.27-.05.08-2.45.78s0,0,0,0c.32-.67.7-1.3,1-2l0-.14v0h0l2.14-.57Z"/><path class="cls-2" d="M239,249.27a4.45,4.45,0,0,1-.73,0,4.45,4.45,0,0,1,.73,0,4.45,4.45,0,0,1,.73,0A4.45,4.45,0,0,1,239,249.27Z"/><path class="cls-2" d="M168,339.21a21.2,21.2,0,0,1-5.31,2.23,19,19,0,0,1-4.18.71,8.28,8.28,0,0,1-3.53-.29,7.58,7.58,0,0,1-.76-.26,2.88,2.88,0,0,1-.38-.22,3.12,3.12,0,0,1-1-1.09,3.71,3.71,0,0,1-.33-2,4,4,0,0,1,.82-2,5,5,0,0,1,1.83-1.4,7.24,7.24,0,0,1,5-.29l.67.21a16,16,0,0,1,4.29,2.25l0,0c.17.12.34.24.51.38.52.37,1,.78,1.57,1.19Z"/><path class="cls-2" d="M204.9,339.66a3.66,3.66,0,0,1-2.08,3,5.84,5.84,0,0,1-3.77.53,14.72,14.72,0,0,1-3.64-1.11,33,33,0,0,1-3.15-1.54c-1.51-.83-2.8-1.65-3.92-2.38a13.71,13.71,0,0,1,9.52-3.09,12.5,12.5,0,0,1,2.52.41,8,8,0,0,1,2.23.9A4,4,0,0,1,204.9,339.66Z"/><path class="cls-2" d="M157.07,306c0,.14-.65.46-1.84,1.14a34.08,34.08,0,0,0-4.77,3.22,29.93,29.93,0,0,0-5.71,6.18,28,28,0,0,0-4.14,9.35,28.47,28.47,0,0,0-.48,10.2,22,22,0,0,0,1,4.33,11.56,11.56,0,0,0,1.78,3.32,7.73,7.73,0,0,0,4.5,2.83c1.28.25,2.07.19,2.09.25s-.15.18-.51.32a4.64,4.64,0,0,1-1.66.24,6.82,6.82,0,0,1-2.62-.6,8.48,8.48,0,0,1-2.91-2.09,12.21,12.21,0,0,1-2.25-3.66,22,22,0,0,1-1.27-4.66,27.81,27.81,0,0,1,.37-10.94,27.1,27.1,0,0,1,11-16.15,23.58,23.58,0,0,1,5.29-2.76A5.26,5.26,0,0,1,157.07,306Z"/><path class="cls-2" d="M220.56,334.59a31.09,31.09,0,0,1-.64,5,18.49,18.49,0,0,1-1.49,4.41,13.11,13.11,0,0,1-2.35,3.36,10.31,10.31,0,0,1-5,3,5.22,5.22,0,0,1-1.58.18c-.37,0-.54,0-.56-.15s.71-.3,1.87-.83a11.29,11.29,0,0,0,4.12-3.26,12.75,12.75,0,0,0,1.84-3.12,19.71,19.71,0,0,0,1.19-4.06,33.85,33.85,0,0,0,.48-4.72,38,38,0,0,0-.17-5.12,41.36,41.36,0,0,0-.83-5.06,39.51,39.51,0,0,0-1.36-4.59c-.27-.72-.54-1.41-.82-2.08s-.59-1.3-.88-1.92-.59-1.18-.9-1.76-.59-1.09-.91-1.58c-.59-1-1.18-1.89-1.72-2.64s-1-1.39-1.41-1.93a6.13,6.13,0,0,1-1.16-1.72,6.47,6.47,0,0,1,1.69,1.24c.47.48,1.12,1,1.71,1.76s1.3,1.53,2,2.53c.37.48.7,1,1.07,1.57a17.07,17.07,0,0,1,1.06,1.76c.34.66.61,1.33,1,2a18.23,18.23,0,0,1,1,2.14,37.05,37.05,0,0,1,1.59,4.77,34.52,34.52,0,0,1,1,5.33A36,36,0,0,1,220.56,334.59Z"/><path class="cls-2" d="M168.39,339l.34-.21.66-.42.46-.36c-1.17-.87-2.33-1.78-3.57-2.62a17.7,17.7,0,0,0-5.67-2.68,9.26,9.26,0,0,0-6.22.49,6.91,6.91,0,0,0-2.47,1.95,5.91,5.91,0,0,0-1.18,2.92,5.54,5.54,0,0,0,.53,3,4.71,4.71,0,0,0,2.19,2.11,9.75,9.75,0,0,0,5.15.57,20,20,0,0,0,4.47-.91A21.32,21.32,0,0,0,169,340l-1-.75h0Zm-.4.19a21.27,21.27,0,0,1-5.32,2.23,19,19,0,0,1-4.18.71,8.58,8.58,0,0,1-3.49-.27,7.58,7.58,0,0,1-.76-.26,2.88,2.88,0,0,1-.38-.22,2.94,2.94,0,0,1-1-1.11,3.71,3.71,0,0,1-.33-2,4,4,0,0,1,.82-2,5,5,0,0,1,1.83-1.4,7.24,7.24,0,0,1,5-.29l.71.23a16,16,0,0,1,4.29,2.25l.55.4c.52.37,1,.78,1.57,1.19l.71.56Z"/><path class="cls-2" d="M205.83,336.78a7.65,7.65,0,0,0-2.2-2,9.92,9.92,0,0,0-2.7-1.14,13.45,13.45,0,0,0-2.9-.51,15.48,15.48,0,0,0-11.5,3.85l0,0,.91.61.9.59c-.14.12-.3.23-.44.36l-.25.23-.06.06a45,45,0,0,0,4,2.81,32.15,32.15,0,0,0,3.2,1.75,15.37,15.37,0,0,0,4,1.36,7.45,7.45,0,0,0,4.83-.59,5.81,5.81,0,0,0,2.07-1.74,4.68,4.68,0,0,0,1-2.76A4.73,4.73,0,0,0,205.83,336.78Zm-1.46,4.47-.19.29c-.06.09-.14.18-.21.27a2.65,2.65,0,0,1-.34.33,3.86,3.86,0,0,1-.83.55,5.85,5.85,0,0,1-3.77.53,14.59,14.59,0,0,1-3.64-1.11c-1.15-.49-2.15-1-3.15-1.54-1.5-.83-2.78-1.64-3.9-2.37l0,0a13.71,13.71,0,0,1,9.47-3.05,12.5,12.5,0,0,1,2.52.41,8,8,0,0,1,2.23.9,4,4,0,0,1,2.29,3.25,3.67,3.67,0,0,1-.21.94A3.93,3.93,0,0,1,204.37,341.25Z"/><polygon class="cls-2" points="188.34 338.19 188.34 338.2 188.33 338.2 188.31 338.21 188.3 338.21 187.94 338.53 187.63 338.82 187.61 338.8 186.95 338.29 185.95 337.49 186.51 336.97 186.53 336.98 187.43 337.59 188.34 338.19"/><path class="cls-2" d="M187.58,338.9a26.12,26.12,0,0,1-4.46,3.94,8.4,8.4,0,0,1-3.4,1.13,10.49,10.49,0,0,1-3.53-.23,17.2,17.2,0,0,1-6.06-2.92c-.37-.26-.72-.53-1.07-.79.34-.23.73-.5,1-.7s.52-.42.77-.63l.52.37a15.18,15.18,0,0,0,5.32,2.57A7.1,7.1,0,0,0,182,341a23.32,23.32,0,0,0,3.88-3.48l1,.85Z"/><path class="cls-2" d="M170.82,338.65c-.25.21-.47.39-.78.63s-.66.47-1,.7l-1-.77h0l.35-.2.34-.21.66-.42.52-.38C170.21,338.22,170.52,338.44,170.82,338.65Z"/><path class="cls-4" d="M242.88,402.66l0,0h0c-1.56,1-3.27,2.11-5.12,3.24l-1.23.75-1.1.66q-3.9,2.29-8.46,4.58h0q-2.52,1.24-5.12,2.32c-.86.36-1.73.7-2.6,1-1.78.68-3.59,1.3-5.41,1.87-4.76,1.49-9.88,2.78-15.17,4.14-2,.54-4.06,1-6.1,1.45q-5.13,1.08-10.36,1.68a53.18,53.18,0,0,1-16.55-.8,102.09,102.09,0,0,1-15-4.46c-1.76-.65-3.49-1.31-5.18-2h0l-3.32-1.3h0L137.27,414c-4.16-1.63-8-3.18-11.54-4.63-4.51-1.86-8.42-3.59-11.66-5.07,0,0,0-.05,0-.08l7.18-.23c15.31-.54,36.46-1.36,59.78-3.3a123.45,123.45,0,0,1,16.87-.68c5.42.29,10.67,1.11,15.75,1.59s9.9.7,14.41.83,8.7.16,12.53.21Z"/><path class="cls-3" d="M226.91,411.93q4.56-2.3,8.46-4.58C232.77,408.89,230,410.44,226.91,411.93Z"/><path class="cls-3" d="M228.05,402.45c-4.51-.13-9.33-.35-14.41-.83s-10.33-1.3-15.75-1.59a123.45,123.45,0,0,0-16.87.68c-23.32,1.94-44.47,2.76-59.78,3.3l-7.18.23s0,.05,0,.08l-.15-.07,0,0h.18l7.16-.23c15.31-.54,36.46-1.36,59.78-3.3a123.45,123.45,0,0,1,16.87-.68c5.42.29,10.68,1.1,15.75,1.59s9.9.7,14.41.83,8.71.16,12.55.23C236.75,402.61,232.56,402.58,228.05,402.45Z"/><path class="cls-4" d="M244,401.17l-3.32-.13-12.5-.49c-4.49-.18-9.27-.48-14.27-1s-10.26-1.4-15.84-1.72a118.83,118.83,0,0,0-17.18.64c-11.63,1-22.72,1.72-32.82,2.35l-26.81,1.62-7.24.47a9.31,9.31,0,0,1,0-1.41l3-1.86a88.21,88.21,0,0,1,12.33-6.56,48.53,48.53,0,0,1,7.54-2.29,49.58,49.58,0,0,1,7.88-1.05q2-.15,4-.24c.94-.05,1.89-.08,2.85-.12l1.87-.07c3-.11,6-.2,9.08-.14a57.23,57.23,0,0,1,9.25.85c.76.15,1.53.3,2.29.49s1.54.42,2.44.58a6,6,0,0,0,2.47,0l.43-.11.62-.22c.31-.11.61-.23.91-.37s.64-.27,1-.43l1.08-.46c.39-.15.78-.3,1.17-.43l.64-.22.64-.2.5-.15,1.07-.28.16,0c.45-.11.9-.2,1.36-.29q1.14-.23,2.31-.36a47.44,47.44,0,0,1,9.23-.06,105.47,105.47,0,0,1,17.36,3.38c5.48,1.46,10.62,3.1,15.36,4.83A42.19,42.19,0,0,1,244,401.17Z"/><path class="cls-3" d="M114,401.5a9.31,9.31,0,0,0,0,1.41l-2.47.16Z"/><path class="cls-3" d="M144.85,389.72c1.29-.1,2.6-.17,3.92-.22q-2,.09-4,.24a49.58,49.58,0,0,0-7.88,1.05A48.24,48.24,0,0,1,144.85,389.72Z"/><path class="cls-3" d="M179,391.06a6,6,0,0,1-2.47,0c-.9-.16-1.68-.39-2.44-.58s-1.53-.34-2.29-.49a57.23,57.23,0,0,0-9.25-.85c-3.08-.06-6.1,0-9.08.14l-1.87.07,1.94-.09c3-.14,6-.2,9.08-.14a57.23,57.23,0,0,1,9.25.85c.76.15,1.53.32,2.29.49s1.54.42,2.44.58A6.06,6.06,0,0,0,179,391.06Z"/><path class="cls-3" d="M244.08,401.17H244a42.19,42.19,0,0,0-11.15-5.52c-4.74-1.73-9.88-3.37-15.36-4.83a105.47,105.47,0,0,0-17.36-3.38,47.44,47.44,0,0,0-9.23.06q-1.17.13-2.31.36c.79-.16,1.58-.29,2.38-.38a47.44,47.44,0,0,1,9.23-.06,105.47,105.47,0,0,1,17.36,3.38c5.48,1.46,10.62,3.1,15.36,4.83A42.1,42.1,0,0,1,244.08,401.17Z"/><path class="cls-2" d="M245.89,400.6l-.88.59h-1a42.19,42.19,0,0,0-11.15-5.52c-4.74-1.73-9.88-3.37-15.36-4.83a105.47,105.47,0,0,0-17.36-3.38,47.44,47.44,0,0,0-9.23.06q-1.17.13-2.31.36c-.46.09-.91.18-1.36.29l-.16,0-1.07.28-.5.15-.64.2-.64.22c-.39.13-.78.28-1.17.43s-.77.31-1.15.48-.58.28-.88.41-.6.26-.91.37l-.62.22-.43.11-.62.1a6.05,6.05,0,0,1-1.85-.07c-.9-.16-1.68-.39-2.44-.58s-1.53-.34-2.29-.49a57.23,57.23,0,0,0-9.25-.85c-3.08-.06-6.1,0-9.08.14l-1.87.07c-1,0-1.91.07-2.85.12q-2,.09-4,.24a49.58,49.58,0,0,0-7.88,1.05,48.53,48.53,0,0,0-7.54,2.29l-.07,0A88.21,88.21,0,0,0,117,399.66c-1,.62-2,1.21-2.92,1.78s-1.78,1.08-2.63,1.59l-1.27-.6c1.41-.95,2.88-1.94,4.44-2.95l1.62-1.05a88.24,88.24,0,0,1,12.42-6.93l1.17-.48h0a42.17,42.17,0,0,1,6.42-2,63.69,63.69,0,0,1,7-1.1h0l1.34-.13c2.87-.26,5.81-.39,8.79-.53s6.05-.23,9.19-.23a60.36,60.36,0,0,1,9.59.82c.81.16,1.6.32,2.42.51s1.59.43,2.29.54a4,4,0,0,0,1.95-.09,15.87,15.87,0,0,0,2.12-.9,33.06,33.06,0,0,1,9.69-2.65,48.82,48.82,0,0,1,9.67,0A104.62,104.62,0,0,1,218,388.81c5.53,1.53,10.8,3.35,15.47,5.07S242.56,397.68,245.89,400.6Z"/><path class="cls-2" d="M109.36,403l-.35.24h.7Z"/><path class="cls-2" d="M245.24,402.7c-2,1.45-4.26,3-6.72,4.61a117,117,0,0,1-10.84,6.29,88.67,88.67,0,0,1-13.33,5.52c-4.84,1.57-10,2.9-15.27,4.29a110.22,110.22,0,0,1-16.8,3.23,59.42,59.42,0,0,1-8.75.23,54.66,54.66,0,0,1-8.44-1.12,99.33,99.33,0,0,1-15.24-4.68c-4.72-1.82-9.13-3.66-13.27-5.37s-8-3.35-11.47-4.9c-4.2-1.85-7.82-3.6-10.87-5.15l-2.59-1.35,2.21-.06.21.1c3.24,1.47,7.14,3.2,11.64,5.06,3.54,1.45,7.37,3,11.54,4.63l4.81,1.88h0c1.09.43,2.19.87,3.32,1.3h0q2.52,1,5.16,2a102.09,102.09,0,0,0,15,4.46,53.18,53.18,0,0,0,16.55.8q5.23-.6,10.38-1.69c2-.42,4.08-.91,6.1-1.45,5.29-1.36,10.41-2.65,15.17-4.14,1.82-.57,3.63-1.19,5.41-1.87.87-.33,1.74-.67,2.6-1q2.59-1.08,5.12-2.32h0q4.56-2.3,8.46-4.58l1.1-.66,1.23-.75c1.85-1.13,3.56-2.22,5.12-3.24Z"/><path class="cls-2" d="M111.42,403.1h0l-1.27-.6-.81.54.35.19Z"/><path class="cls-2" d="M246.61,401.3l-1.57-.07.88-.59.17.15C246.28,401,246.43,401.12,246.61,401.3Z"/><polygon class="cls-2" points="245.83 402.69 245.28 402.69 245.57 402.47 245.6 402.47 245.83 402.69"/><path class="cls-2" d="M244.53,401.56h0l-1.66,1.09h-2.28c-3.83-.05-8-.08-12.53-.21s-9.33-.35-14.41-.83-10.33-1.3-15.75-1.59a123.45,123.45,0,0,0-16.87.68c-23.32,1.94-44.47,2.76-59.78,3.3l-7.18.23h-.16l-.05,0h0l-2.38-1.11h0l2.48-.17,7.19-.46L148,400.84c10.1-.63,21.19-1.35,32.82-2.35a118.83,118.83,0,0,1,17.18-.64c5.58.32,10.84,1.2,15.84,1.72s9.78.8,14.27,1l12.5.49,3.37.12h.08l.45.36Z"/><path class="cls-2" d="M109.42,404.35l2.27-.06c-.4-.21-.8-.42-1.17-.63Z"/><path class="cls-2" d="M248,402.7h-2.17l-.23-.22,1.26-.93h0C247.27,401.93,247.65,402.32,248,402.7Z"/><polygon class="cls-2" points="245.01 401.23 244.52 401.55 244.5 401.57 244.03 401.19 244.07 401.19 245.01 401.23"/><path class="cls-2" d="M109.71,403.22H109l-1.68,1.14,2.09-.06,1.1-.69Z"/><path class="cls-2" d="M245.57,402.47l-.31.22h-2.42l0,0,1.63-1.07c.18.14.36.27.52.41a1.24,1.24,0,0,1,.22.18Z"/><polygon class="cls-2" points="247.17 401.32 246.87 401.54 246.86 401.54 246.63 401.32 247.17 401.32"/><path class="cls-2" d="M111.46,403.09h0l-.9.56c.37.21.77.42,1.17.63l2.21-.06Z"/><path class="cls-2" d="M246.86,401.54l-1.27.92h0l-.32-.29c-.07-.08-.15-.14-.21-.2s-.34-.27-.52-.41h0l.5-.33h0l1.57.07,0,0Z"/><path class="cls-2" d="M110.52,403.66l.9-.56-1.71.12Z"/><path class="cls-2" d="M40.73,397.77a5.93,5.93,0,0,1-.73,0,6,6,0,0,1-.72-.13l-.16,0-.11,0A23.87,23.87,0,0,1,34.3,396a31,31,0,0,1-6.67-4.17,39.85,39.85,0,0,1-7.12-7.61,47.84,47.84,0,0,1-3.26-5.13,60.9,60.9,0,0,1-2.8-5.95,97.18,97.18,0,0,1-4.23-13.79C9,354.43,8,349.23,6.85,343.91s-2.76-10.74-4.16-16.42A84.31,84.31,0,0,1,0,310.55a40.93,40.93,0,0,1,2.55-15.88A27.68,27.68,0,0,1,11,282.77a14.91,14.91,0,0,1,6-3.1A7.66,7.66,0,0,1,23.38,281,14,14,0,0,1,27,285.32a41,41,0,0,1,2.16,4.42c.32.75.61,1.51.89,2.28a46.45,46.45,0,0,1,1.53,5.17,40,40,0,0,1,.83,4.85,6.21,6.21,0,0,1,.08,1.72,10.3,10.3,0,0,1-.4-1.66c-.23-1.1-.6-2.71-1.19-4.73a53,53,0,0,0-2.3-6.2c-.14-.33-.29-.66-.44-1A40.28,40.28,0,0,0,26,286a12.94,12.94,0,0,0-3.41-3.81,6,6,0,0,0-.84-.5,6.08,6.08,0,0,0-4.26-.44,13.58,13.58,0,0,0-5.31,2.89,26.14,26.14,0,0,0-7.75,11.23A39.56,39.56,0,0,0,2.1,310.48,83.09,83.09,0,0,0,4.76,327c1.38,5.61,3,11.08,4.14,16.47S11,354,12.18,358.9a101.51,101.51,0,0,0,4,13.57,60.67,60.67,0,0,0,2.6,5.82,49.36,49.36,0,0,0,3,5,39.29,39.29,0,0,0,6.65,7.56,32.83,32.83,0,0,0,6.25,4.35A32.52,32.52,0,0,0,39,397l.11,0h0a5.88,5.88,0,0,1,.84.27A5.51,5.51,0,0,1,40.73,397.77Z"/><path class="cls-2" d="M28.43,308a16.93,16.93,0,0,1-1-2.5,21,21,0,0,0-3.81-6.06A19.6,19.6,0,0,0,20,296.19a20,20,0,0,0-2.32-1.39c-.41-.22-.86-.39-1.29-.59a7,7,0,0,0-1.29-.42,3.24,3.24,0,0,0-2.33.18c-.56.32-.83,1.08-1,2.18-.44,2.23-.78,4.48-1,6.74-.09,1-.12,1.95-.19,2.91s0,1.9,0,2.84c0,1.87.06,3.69.2,5.45a96.24,96.24,0,0,0,1.2,9.59c.81,4.62,1.73,8.23,2.24,10.46.11.52.21,1,.28,1.33l.32,1.69-.79-1.45-.06-.11c0-.05,0-.1-.08-.14-.26-.5-.37-.78-.34-.86l-.3-.77c-.29-.72-.57-1.59-.9-2.57s-.66-2.09-1-3.31-.68-2.55-1-4A78.19,78.19,0,0,1,8.7,314.2c-.18-1.8-.27-3.67-.3-5.6v-2.94c0-1,.09-2,.19-3a63.75,63.75,0,0,1,1-7,8.71,8.71,0,0,1,.55-1.8,3.78,3.78,0,0,1,1.44-1.65,5,5,0,0,1,3.81-.33,9.67,9.67,0,0,1,1.59.56c.47.24.95.45,1.39.71a19.53,19.53,0,0,1,2.47,1.63,21.53,21.53,0,0,1,3.72,3.73,20.77,20.77,0,0,1,2.26,3.68,18.15,18.15,0,0,1,1.14,3A6.29,6.29,0,0,1,28.43,308Z"/><path class="cls-2" d="M17.24,328.85a23.45,23.45,0,0,1-.61,3c-.52,2-1,4.19-1.42,6.52a78.93,78.93,0,0,0-1,9.94c-.11,2.81-.06,5-.15,6.2h0a.14.14,0,0,1,0,.07h-.7a29.37,29.37,0,0,1-.83-6.27A48.15,48.15,0,0,1,13.25,338c.16-.85.34-1.7.54-2.54v0a4.54,4.54,0,0,1,.12-.53c.06-.26.12-.52.2-.77.23-.94.5-1.87.8-2.8s.58-1.9.77-2.76a12.16,12.16,0,0,0,.33-2.41,26.37,26.37,0,0,1,.24-3.76c.18-.9.44-1.35.53-1.33s.06.52.11,1.38.26,2.06.41,3.68A11.68,11.68,0,0,1,17.24,328.85Z"/><path class="cls-2" d="M25.47,362.16c.36.44.55.73.46.84s-.39,0-.89-.26a12.46,12.46,0,0,1-2.61-2,11.64,11.64,0,0,1-2.63-3.83,11,11,0,0,1-.67-5.73,16.93,16.93,0,0,1,1.72-5.35,33.64,33.64,0,0,1,2.3-3.82,12.05,12.05,0,0,1,1.07-1.4,3.18,3.18,0,0,1,1.16-.83,1.51,1.51,0,0,1,.94-.06c.2.07.28.16.26.2a2.32,2.32,0,0,0-.89.43,3.92,3.92,0,0,0-.71.86c-.24.38-.46.87-.74,1.44-.55,1.11-1.22,2.42-1.84,3.89A19.12,19.12,0,0,0,21,351.4a10.58,10.58,0,0,0,.45,4.84,13.36,13.36,0,0,0,2,3.55c.73.95,1.4,1.68,1.85,2.21Z"/><path class="cls-2" d="M26.57,363.71c-.81,1.19-1.55,2.26-2.16,3s-1.09,1.18-1.33,1.06-.19-.77.15-1.71A16.2,16.2,0,0,1,25,362.74l.05-.07c.12-.18.25-.35.38-.51,1.64-2.18,3.4-3.47,3.69-3.15S28.16,361.33,26.57,363.71Z"/><path class="cls-2" d="M384.47,316.21c-.27,5.61-1,11.36-1.76,17.22-.38,2.93-.71,5.83-1,8.68s-.44,5.66-.64,8.46A54.27,54.27,0,0,1,380,358.8a33.78,33.78,0,0,1-2.68,7.55,73.28,73.28,0,0,1-8,12.3,55.52,55.52,0,0,1-8.8,9.26,31.39,31.39,0,0,1-9.13,5.3,24.24,24.24,0,0,1-7.81,1.57,17.85,17.85,0,0,1-4.55-.39l-.45-.09-.19,0a6.48,6.48,0,0,1-1.48-.51,9.16,9.16,0,0,1,1.56.22l.16,0,.48.06a20.08,20.08,0,0,0,4.45.14,25.11,25.11,0,0,0,7.55-1.76,31.3,31.3,0,0,0,8.75-5.34,55.32,55.32,0,0,0,8.49-9.21A72.84,72.84,0,0,0,376,365.75a32.73,32.73,0,0,0,2.53-7.26,53.82,53.82,0,0,0,1-8c.19-2.76.34-5.62.62-8.5s.63-5.78,1-8.72c.77-5.87,1.49-11.58,1.77-17.11a68.45,68.45,0,0,0-.83-15.85,42.18,42.18,0,0,0-4.7-13.45,22.6,22.6,0,0,0-8.32-8.92,11.27,11.27,0,0,0-5-1.49,11.09,11.09,0,0,0-4.62.81,20,20,0,0,0-6.27,4.46c-1.52,1.52-2.59,2.82-3.33,3.68a8,8,0,0,1-1.18,1.29,7.09,7.09,0,0,1,.93-1.48,39.22,39.22,0,0,1,3.14-3.91,25.14,25.14,0,0,1,2.65-2.51,4.46,4.46,0,0,1,.43-.33,16.51,16.51,0,0,1,3.3-2,12,12,0,0,1,5-1,12.48,12.48,0,0,1,5.51,1.51,23.44,23.44,0,0,1,8.89,9.24,42.76,42.76,0,0,1,5,13.83A68.29,68.29,0,0,1,384.47,316.21Z"/><path class="cls-2" d="M378.67,305a61.66,61.66,0,0,1-.49,8.26c-.66,5.21-1.58,9.77-2.11,13.71-.09.66-.17,1.29-.24,1.9l0,0c-.09-.26-.18-.51-.29-.78a11.26,11.26,0,0,0-.55-1.17v0h0v0c.38-3.93,1.15-8.56,1.69-13.66a61.78,61.78,0,0,0,.31-8,34.89,34.89,0,0,0-1.28-8.43,23.33,23.33,0,0,0-1.52-4l-.47-.94-.53-.89a9.48,9.48,0,0,0-1.14-1.62,7.88,7.88,0,0,0-2.91-2.23,3.34,3.34,0,0,0-3,.17,11.58,11.58,0,0,0-2.52,2.42c-.8.92-1.53,1.84-2.24,2.74a58.72,58.72,0,0,0-3.66,5.2,80.8,80.8,0,0,0-4.51,8.08,13.81,13.81,0,0,1-1.62,3,10.45,10.45,0,0,1,.9-3.34,55.81,55.81,0,0,1,4-8.5,63.12,63.12,0,0,1,3.55-5.47c.69-.94,1.43-1.87,2.22-2.87a12.83,12.83,0,0,1,2.92-2.87,5.25,5.25,0,0,1,2.27-.74,5.56,5.56,0,0,1,2.39.37,9.46,9.46,0,0,1,3.69,2.74,11.21,11.21,0,0,1,1.33,1.88l.58,1,.5,1a24.76,24.76,0,0,1,1.61,4.33A35.69,35.69,0,0,1,378.67,305Z"/><path class="cls-2" d="M368.05,344.07a16.78,16.78,0,0,1-1,4.53,11.55,11.55,0,0,1-2.7,4.34,9.46,9.46,0,0,1-4.53,2.48,20.61,20.61,0,0,1-4.57.46c-1.41,0-2.74,0-3.93.07a13.27,13.27,0,0,0-3.23.62,9.46,9.46,0,0,0-2.41,1.18,6.42,6.42,0,0,0-1.44,1.41,16,16,0,0,0-.88,1.54c-.05,0-.05-.18-.05-.51a4.42,4.42,0,0,1,.41-1.37,6.19,6.19,0,0,1,1.41-1.81,9.71,9.71,0,0,1,2.56-1.59,13.42,13.42,0,0,1,3.51-1c1.28-.18,2.62-.23,4-.33a20,20,0,0,0,4.16-.58,7.85,7.85,0,0,0,3.63-2,10,10,0,0,0,2.25-3.62,16.66,16.66,0,0,0,.95-4,29.33,29.33,0,0,0-.16-7.19,42.08,42.08,0,0,0-1-4.82,7,7,0,0,1-.34-1.84c.05,0,.17.1.36.36a7.34,7.34,0,0,1,.72,1.2,20.84,20.84,0,0,1,1.69,4.83A25.51,25.51,0,0,1,368.05,344.07Z"/><path class="cls-2" d="M377.32,334.69h0v0Z"/><path class="cls-2" d="M375,326.78v0a.06.06,0,0,1,0,0c-.14,1.51-.23,2.91-.28,4.18l0,0c-.32-.69-.63-1.41-1-2.13a42.32,42.32,0,0,0-2.43-4.09c-1.88-2.95-3.45-5.7-4.52-7.74s-1.63-3.36-1.43-3.49,1.16.93,2.59,2.74,3.27,4.38,5.18,7.32a28.81,28.81,0,0,1,1.87,3.16h0Z"/><path class="cls-2" d="M375.81,328.79c-.14,1.2-.26,2.35-.33,3.35v.45a.86.86,0,0,1-.07-.1c-.26-.49-.5-1-.74-1.49v0c.05-1.22.14-2.67.29-4.18v0s0,0,0,0a11.78,11.78,0,0,1,.54,1.21C375.63,328.28,375.72,328.53,375.81,328.79Z"/><path class="cls-2" d="M77.58,490.06c.13,1.08.26,2.16.39,3.27.28,2.29.42,4.67.65,7.11.1,1.22.21,2.46.31,3.72s.14,2.53.21,3.82c.33,5.17.47,10.61.61,16.24,0,2.82,0,5.69.1,8.6s.07,5.87,0,8.86c-.16,12-.31,23.39-.44,33.77-.07,5.2,0,10.14,0,14.76s.12,8.93.32,12.85q.15,3,.24,5.61c.09,1.77.23,3.43.34,5,.22,3.12.41,5.8.69,8,.49,4.37.83,6.77,1,6.76s.07-2.45-.18-6.83c-.16-2.18-.23-4.87-.35-8,0-1.56-.14-3.22-.18-5S81.23,605,81.2,603c-.12-3.92,0-8.22-.09-12.83s.08-9.54.19-14.72c.18-10.38.47-21.79.55-33.78v-8.89c0-2.89-.1-5.8-.15-8.63-.18-5.66-.38-11.11-.78-16.31-.09-1.29-.18-2.57-.26-3.84s-.25-2.51-.37-3.73c-.26-2.46-.43-4.85-.75-7.14l-.07-.55-.75-1A16,16,0,0,1,77.58,490.06Z"/><path class="cls-2" d="M310,474.81c0,3.29-.06,7-.09,11.19-.1,16.57-.39,39.45-1.22,64.66-.42,12.63-.93,24.65-1.47,35.58s-1.09,20.78-1.58,29c-.23,4.14-.48,7.85-.62,11.17a56.5,56.5,0,0,0,.2,8.53,26.48,26.48,0,0,0,1.1,5.25,5.45,5.45,0,0,0,.73,1.69,7.23,7.23,0,0,0-.32-1.84,36,36,0,0,1-.68-5.19,64.59,64.59,0,0,1,.16-8.35c.28-3.27.6-7,.95-11.12.67-8.26,1.38-18.1,2-29s1.2-23,1.6-35.63.62-24.71.7-35.68,0-20.84-.14-29.13c-.1-5.44-.21-10.17-.28-14.11-.33.61-.67,1.21-1,1.8C310,474.06,310,474.42,310,474.81Z"/><path class="cls-2" d="M77.58,490.06v0A181.88,181.88,0,0,1,61.34,461.5q-1.89-4.06-3.52-8c-.81-1.92-1.57-3.81-2.3-5.66-1.8-4.57-3.37-8.92-4.79-13C48,427,45.85,420,44.1,414.33s-3-10.07-3.91-13.07c0-.05,0-.1,0-.14-.44-1.43-.75-2.53-1-3.28a1.82,1.82,0,0,1-.07-.25A3.41,3.41,0,0,1,39,397c0-.13,0-.25-.07-.38a3.93,3.93,0,0,1,.18.43,3.86,3.86,0,0,1,.19.54,1.15,1.15,0,0,1,.06.17c.19.55.45,1.31.77,2.26.11.34.24.71.37,1.1l4.24,13c1.83,5.62,4.12,12.52,7,20.39s6.37,16.81,10.88,26.36a185.39,185.39,0,0,0,14.57,25.71s0,.07,0,.1C77.31,487.81,77.44,488.93,77.58,490.06Z"/><path class="cls-2" d="M340.72,385.08a4,4,0,0,1-.09,1.2c-.12.8-.28,2-.6,3.51s-.61,2.85-1,4.27c0,.11-.05.22-.08.33q-1.08,4.35-2.52,8.59c-.27.83-.56,1.69-.86,2.58-1.72,5.09-3.88,11-5.53,18-1,4.06-1.62,8.5-2.49,13.21A115.07,115.07,0,0,1,324,451.51,58.3,58.3,0,0,1,317.74,465l0,0v0h0v-3a58,58,0,0,0,4.85-11,115.22,115.22,0,0,0,3.65-14.53c.91-4.66,1.59-9.14,2.66-13.24,2.07-8.22,4.83-15,6.76-20.54a.42.42,0,0,1,0-.1q1.49-4.11,2.68-8.33a2.45,2.45,0,0,0,.08-.29c.41-1.42.78-2.85,1.14-4.28s.63-2.67.82-3.45A8,8,0,0,1,340.72,385.08Z"/><path class="cls-2" d="M315.34,465.7a128.55,128.55,0,0,1-11.47,13.73c-8.41,9.17-17.36,19-27.87,28.18a134.56,134.56,0,0,1-17.09,12.75c-3.11,1.88-6.3,3.7-9.64,5.29s-6.8,3-10.36,4.32a167.7,167.7,0,0,1-22.23,6.22,192.09,192.09,0,0,1-23.51,3.64A143.7,143.7,0,0,1,146.62,537a112.17,112.17,0,0,1-21-7.18,104.17,104.17,0,0,1-18.25-10.94A132,132,0,0,1,80,490.64c-.37-.51-.72-1-1.08-1.52.16,1.14.32,2.31.48,3.49a132.22,132.22,0,0,0,26.85,27.78,106.37,106.37,0,0,0,18.54,11.21,113.64,113.64,0,0,0,21.33,7.4,145,145,0,0,0,47.21,2.92,194.11,194.11,0,0,0,23.75-3.69,168.27,168.27,0,0,0,22.49-6.32,110.63,110.63,0,0,0,10.54-4.42c3.4-1.63,6.65-3.5,9.81-5.42a137,137,0,0,0,17.31-13c10.6-9.3,19.53-19.24,27.89-28.46a128.74,128.74,0,0,0,11.53-14v-.06c0-1.08.05-2.12.09-3.08A21.65,21.65,0,0,1,315.34,465.7Z"/><path class="cls-2" d="M77.17,486.62v.1c.13,1.09.26,2.21.4,3.34.36.52.7,1,1.07,1.55l.75,1c-.16-1.18-.32-2.35-.48-3.49C78.33,488.28,77.73,487.45,77.17,486.62Z"/><path class="cls-2" d="M316.81,463.48c0,1-.07,2-.09,3.08a14.78,14.78,0,0,0,1-1.56v-3Z"/><path class="cls-2" d="M74.94,211.77l-.25.11A.24.24,0,0,1,74.94,211.77Z"/><path class="cls-2" d="M150.8,224.72a8.9,8.9,0,0,1-2.33,2.29c-.68.45-1.41.8-2.13,1.18-2.74,1.41-5.39,3.07-8.35,3.91-5,1.41-10.31.34-15.39-.74a5.93,5.93,0,0,1-1.77-.58,9.05,9.05,0,0,0-1-.59,3.51,3.51,0,0,0-1.37-.16c-2.58.06-5.15.19-7.73.39-6.76.56-13.46,1.67-20.16,2.78A61.43,61.43,0,0,0,79,235.9a64.39,64.39,0,0,0-10.11,5.29q-8.17,4.92-16.48,9.61a4.42,4.42,0,0,1-3.07.85,4.51,4.51,0,0,1-1.88-1.19l-5.2-4.72a9.16,9.16,0,0,0,2.5-.49,2.82,2.82,0,0,1-1.22-2c1.94-.65,2.37-6.09,3-8.06a33,33,0,0,1,5.94-11.32l.16,1.57a55.09,55.09,0,0,1,7.56-7.71,3.87,3.87,0,0,1-.27,1.35,13.76,13.76,0,0,1,6.5-5.55l4.11-1.07-.5,1.17a38.39,38.39,0,0,0,4.66-1.75.5.5,0,0,0,.13.66,1.23,1.23,0,0,0,1.06,0,64.42,64.42,0,0,1,10-2.76l-.59,1.44,1.57-.12a5.56,5.56,0,0,0-1.65,3l17.2-2.95-.06,1.33a66.49,66.49,0,0,0,19.45,2.26l-.94,1.22h4.07a1.48,1.48,0,0,1,1.15.34.6.6,0,0,1-.15.86h6.38c.41,0,.9.05,1.1.4a.4.4,0,0,1-.09.46,75.88,75.88,0,0,1,10.11-.21,1.91,1.91,0,0,1-1.59,1.43l4.71.78-.72,2.22a3.52,3.52,0,0,1,3.92,1.82A1.64,1.64,0,0,1,150.8,224.72Z"/><path class="cls-1" d="M308.13,223.19l-.26-.25C308,222.88,308.28,223.08,308.13,223.19Z"/><path class="cls-1" d="M316.19,242.6c-3.57-2-7.09-4-10.6-6-.31.43-1,.32-1.53.15-10.81-3.49-21.93-5.91-33-8.34-3.61-.78-7.49-1.55-10.9-.14a3.66,3.66,0,0,1-4.44-.32c-2.94-1.46-6.4-1.2-9.67-.9l-20.75,2c-2.73.25-5.67.45-8-1-2.61-1.57-3.81-4.74-6.1-6.76l1.07.69c-.31-.19,2.08-1.66,2-1.56.59-1.22-.06-2.59-.4-3.88l2.58-.09.19-1.57a2.75,2.75,0,0,0,1.58.1l.21-1.64a3.85,3.85,0,0,0,2.33.79A4.59,4.59,0,0,0,221,212l3.06-.1-1-1.12c4.33,1.95,10-2.06,13.91.7l-.94-1.59,15.84.67.48-1.27a18.47,18.47,0,0,0,4.46,1l-.46-1.78a23.35,23.35,0,0,0,7.31,2.31l-.75-1.4a34.46,34.46,0,0,0,9.26,1.14l1.26.05,4.75.16a3.39,3.39,0,0,0-.76-1.15l6.57,2.63-.22-2.13a97.08,97.08,0,0,1,10.22,4.4.88.88,0,0,0-.45-1.15,46.08,46.08,0,0,1,14.3,9.57.1.1,0,0,0-.07,0c-.14.17-.06.42,0,.62Z"/><path class="cls-3" d="M62.64,424.53l.67,9.49"/><path class="cls-1" d="M210.28,448.19a16.8,16.8,0,0,1-6-4.06l-.2,3.12a10.66,10.66,0,0,1-4.47-2.2,4,4,0,0,0-.76,3.17,27.48,27.48,0,0,1-6.2-4.27,3.19,3.19,0,0,1,.08.75,3.44,3.44,0,0,1-.92,2.35,3.57,3.57,0,1,0-6.91,1.81,5.94,5.94,0,0,0-3.14-1.49,2.39,2.39,0,0,0-2.59,1.85,5,5,0,0,0-1.85-2.64c-1-.54-2.5-.09-2.58,1a9.51,9.51,0,0,1-3.28-1.51l-2.66,2.69-2.52-3.26a4.9,4.9,0,0,1-3.24,2.27,7.1,7.1,0,0,0-.51-3.52,6.18,6.18,0,0,1-5.24,1.66,27.31,27.31,0,0,0,5-11.82l-.49-.84c2.83-2.92,7.43-3.08,11.53-3q14.91.33,29.75,1.49a5.07,5.07,0,0,1,2.2.54,4.54,4.54,0,0,1,1.28,1.34C209.66,437.88,212.48,443.4,210.28,448.19Z"/><path class="cls-1" d="M345,320.2a203.38,203.38,0,0,1-4.23,31.48c-3.51,17-4.72,33.76-5.11,50.91l-.06,3c-.09,5.22-.12,10.48-.12,15.81a96.73,96.73,0,0,1-2,17.38c-.67,3.81-2.43,12.56-5.86,13.89a19.39,19.39,0,0,1-1.76,7.18c-.47-.26-.87-.56-1.37-.88a66.1,66.1,0,0,1-6.6,12.68c-.2.32-.41.63-.63.94s-.42.65-.62,1c-2.29,4.09-4.21,11.2-7.59,13.69-.15-.33-.37-1-.59-1.49-4.47,8.89-9.2,18.4-16,24.93-1.86,2.12-3.69,4.27-5.7,6.26.68-.62,1.34-1.19,2-1.71-.93.8-1.82,1.62-2.73,2.45l.26-.26c-4.66,4.32-10.37,10.33-15.65,11.43,0,0,.25-1.25.26-1.25a21.25,21.25,0,0,1-5.57,6.44c.18-.23.54-.82.76-1.17a15.49,15.49,0,0,1-5.49,4.87,3.91,3.91,0,0,0,.15-.83c-2.92,1.25-5.58,3.85-8.51,5.14a12.92,12.92,0,0,0,2.87-3.05c-3.2,1.41-6.47,3.23-9.71,4.67a29.27,29.27,0,0,0,2.34-3.1c-3.2,1.65-7.24,5.92-11.12,5.67a.94.94,0,0,0,0-.77c-5,1.68-8.78,5.07-14,6.08a14.93,14.93,0,0,0-.13-2c-2.71.53-8.19,4.18-7.92-.52-4.69,1.61-9.76,1.33-14.3,2.82-5.43,1.77-10.12,3.16-15.5,5a1.72,1.72,0,0,0,.29-.9c-3.26-.2-11,1.42-10.53-3.73-3.79-.5-22.7,3-22.68-1.15-2.71-.86-9.39,1-8.83-2.61-2.64-2.48-8.32-.39-11.49-2.09-1.26-.67-3.66-3.46-4.4-3.76-1.86-.78-3.68.68-5.18,0-1.15-.49-1.76-3-2.37-3.21a17.38,17.38,0,0,0-2.5,0c-1.77-1-2.3-.65-4.1-2.17-1.06-.89-1.33-3.38-2-3.81-1.8-1.11-4.43,0-6-1.37-1.12-1-.09-3.88-1.2-4.7-1.75-1.3-4.32.12-6.17-1.09-1-.67-1.25-3.75-2.69-4.84-1.62-1.23-4-.81-5.74-2.07-.55-.4-3-3.9-3.5-4.49a22,22,0,0,1-4-5L81,508.77h0a21.81,21.81,0,0,1-2-3.65,7.63,7.63,0,0,1-.52-4C73.63,499.83,74,487,71.33,483c-1.73-2.55-4.09-4.45-5.44-7.74-1-2.49-3-5.58-3.94-8-1.66-4.43-2.57-9.08-4.13-13.74a45.17,45.17,0,0,0-2-4.94c-.12-.24-.24-.48-.35-.72a127.22,127.22,0,0,1-7.15-17.94c-2-6.58-5.65-13-7.29-19.64a44.14,44.14,0,0,1-.93-9.16c0-.35,0-.71,0-1.06,0-.77-.06-1.54-.11-2.3l0-.39a31.49,31.49,0,0,0-.71-5.23C36.5,380.32,33,368.92,30.59,357c-2.49-12.11-3.65-27.57-1.07-39.55l2.11-2.11c-3.7,12.06,7.84,26.78,10,38.42,2.73,14.69,12,29.39,22.69,39.12,2.17,2,5.76,4.15,7.94,7.17,1.24,1.71,1.46,3.59,2.5,5.37,1.17,2,2.19,2.51,3.28,3.9,2.46,3.15,4,6.36,6.89,9.41,3,3.21,6.54,5.27,9.49,8.29,1.91,2,3.67,4.19,5.53,6.3,2.81,3.22,5.83,6.17,9.89,7.47a14.51,14.51,0,0,0,1.41.37c3.56.76,6.44-.4,9.83.07,2.76.38,7.49,2,10.36,2.81,2.7.81,7.48,2.2,9.4,4.19,2.86,2.95,2.47,5.1,6.86,6.9,3.63,1.5,8.19,4.23,11.93,5.24,4.35,1.18,9.11-1.46,13.31-.22,5.77,1.71,5.63,5.16,12.4,3.17,3.95-1.17,1.79-2,5.63-.94,1.66.47,1.46,2.67,4.28,2.68,2.35,0,5.15-3.51,7.43-4.17,2.81-.82,3.19,0,5.8,0,4.64,0,6.69-1,10.9-3.29,8-4.31,16.28-6.65,24.53-11.74,4.44-2.74,9.24-2.68,13.36-5.51l.63-.46c3-2.33,5.41-6,7.51-9,1.39-1.92,2.82-3.75,4.29-5.52,4.71-5.71,9.75-10.85,14.59-16.72,5.49-6.68,8.53-14.08,14-20.86,10.14-12.66,31.45-23.84,34.07-41,1.14-7.4,2.31-14.89,3.39-22.28,1.06-7.19-.2-15.71,2.25-22.53,1.19-3.32,3.74-6.71,5.4-9.92C347.61,296.36,345.3,314.1,345,320.2Z"/><path class="cls-4" d="M382.11,300.31a42.18,42.18,0,0,0-4.7-13.45,22.6,22.6,0,0,0-8.32-8.92,11.27,11.27,0,0,0-5-1.49,11.09,11.09,0,0,0-4.62.81,19.64,19.64,0,0,0-4,2.43,21.91,21.91,0,0,1-1.31,3c-2.43,4.53-7,8.29-12.11,8.07-9.37-15.53-5.89-35.33-7.57-53.48a177.25,177.25,0,0,0-3.59-20.84L314,136.93c-1.88-8.83-4.44-18.66-12.1-23.23a45.69,45.69,0,0,1-4,12.44,14.3,14.3,0,0,0-7.78-13.34l-.95-5.26a23.27,23.27,0,0,0-16.56,4,49.91,49.91,0,0,0-4.38-12c-.55-1.07-1.3-2.23-2.47-2.39a1.61,1.61,0,0,0-1.63,1.59l.41.68a.8.8,0,0,1-.41-.68l-7.23-12.17a6.71,6.71,0,0,1-4.64,3.53,11.18,11.18,0,0,0-8.36-6.6c-2.29-.36-4.69,0-6.93-.63a17.85,17.85,0,0,1-4.75-2.64c-16-10.84-36.12-13.32-55.37-13.53-17.07-.19-34.36,1.22-50.5,6.88-22,7.73-40.69,22.88-58.85,37.75-5.41,4.42-10.94,9-14.34,15.16-8.59,15.54-1,35.4-5.55,52.63-2.09,8-6.69,15.08-9.5,22.86-3.79,10.47-4.19,21.85-4.56,33l-1.87,57.55c0,.28-.68,0-1.63-.51a46.45,46.45,0,0,1,1.53,5.17,40,40,0,0,1,.83,4.85,6.21,6.21,0,0,1,.08,1.72,10.3,10.3,0,0,1-.4-1.66c-.23-1.1-.6-2.71-1.19-4.73a53,53,0,0,0-2.3-6.2,34.41,34.41,0,0,1-4.2-2.94,13.28,13.28,0,0,1-2.73-6.56,6.08,6.08,0,0,0-4.26-.44,13.58,13.58,0,0,0-5.31,2.89,26.14,26.14,0,0,0-7.75,11.23A39.56,39.56,0,0,0,2.1,310.48,83.09,83.09,0,0,0,4.76,327c1.38,5.61,3,11.08,4.14,16.47S11,354,12.18,358.9a101.51,101.51,0,0,0,4,13.57,60.67,60.67,0,0,0,2.6,5.82,49.36,49.36,0,0,0,3,5,39.29,39.29,0,0,0,6.65,7.56,32.83,32.83,0,0,0,6.25,4.35A32.52,32.52,0,0,0,39,397c0-.13,0-.25-.07-.38a3.93,3.93,0,0,1,.18.43h0a5.88,5.88,0,0,1,.84.27,31.49,31.49,0,0,0-.71-5.23C36.5,380.32,33,368.92,30.59,357c-2.49-12.11-3.65-27.57-1.07-39.55l2.11-2.11c-3.7,12.06,7.84,26.78,10,38.42,2.73,14.69,12,29.39,22.69,39.12,2.17,2,5.76,4.15,7.94,7.17,1.24,1.71,1.46,3.59,2.5,5.37,1.17,2,2.19,2.51,3.28,3.9,2.46,3.15,4,6.36,6.89,9.41,3,3.21,6.54,5.27,9.49,8.29,1.91,2,3.67,4.19,5.53,6.3q-3.26-7.06-6.55-14.13c-.44-1-1.72-2-2.32-1.16,1.61-6.6-4-13.71-1.45-20a16.75,16.75,0,0,1,3.13-4.47l9.76-11.1c-.26.39.24,1.07.78,1a2.2,2.2,0,0,0,1.41-1c5.54-6.61,13.72-10.3,21.61-13.79l15.5-6.84c1.68-.75,3.37-1.49,5.09-2.15a49.4,49.4,0,0,1,6.9-2.1,54,54,0,0,1,16.38-.95,7.27,7.27,0,0,0,1.76,5.72c5,1.36,9.44-3.18,14.22-5.18,3.23-1.35,6.81-1.53,10.31-1.56a121.88,121.88,0,0,1,12.68.57,4.58,4.58,0,0,1,2.08.55,6.31,6.31,0,0,1,1.52,1.78,8.46,8.46,0,0,0,9.47,2.86c-.76,1.43.64,3.09,2.1,3.78s3.22,1,4.17,2.35a20.63,20.63,0,0,0,1.36,2.38c1.31,1.39,3.62.77,5.44,1.33,2.2.67,3.44,3,5.36,4.23s4.11,1.36,6.26,1.75a27.26,27.26,0,0,1,11.65,5.17c1.43,1.1,2.84,2.5,3,4.29a8.47,8.47,0,0,0,.26,2.7c.41.86,1.36,1.28,2.14,1.82,4.53,3.12,3.52,9.86,3.57,15.36,0,4.48,1.12,8.87,1.74,13.3a38.19,38.19,0,0,1,.42,5.55c4.71-5.71,9.75-10.85,14.59-16.72,5.49-6.68,8.53-14.08,14-20.86,10.14-12.66,31.45-23.84,34.07-41,1.14-7.4,2.31-14.89,3.39-22.28,1.06-7.19-.2-15.71,2.25-22.53,1.19-3.32,3.74-6.71,5.4-9.92,4.21,4.26,1.9,22,1.61,28.1a203.38,203.38,0,0,1-4.23,31.48c-3.51,17-4.72,33.76-5.11,50.91q1.49-4.11,2.68-8.33a6.48,6.48,0,0,1-1.48-.51,9.16,9.16,0,0,1,1.56.22c.41-1.42.78-2.85,1.14-4.28s.63-2.67.82-3.45a8,8,0,0,1,.33-1.16,4,4,0,0,1-.09,1.2c-.12.8-.28,2-.6,3.51s-.61,2.85-1,4.27a20.08,20.08,0,0,0,4.45.14,25.11,25.11,0,0,0,7.55-1.76,31.3,31.3,0,0,0,8.75-5.34,55.32,55.32,0,0,0,8.49-9.21A72.84,72.84,0,0,0,376,365.75a32.73,32.73,0,0,0,2.53-7.26,53.82,53.82,0,0,0,1-8c.19-2.76.34-5.62.62-8.5s.63-5.78,1-8.72c.77-5.87,1.49-11.58,1.77-17.11A68.45,68.45,0,0,0,382.11,300.31ZM29.16,359c.31.34-1,2.32-2.59,4.7-.81,1.19-1.55,2.26-2.16,3s-1.09,1.18-1.33,1.06-.19-.77.15-1.71A16.2,16.2,0,0,1,25,362.74a12.46,12.46,0,0,1-2.61-2,11.64,11.64,0,0,1-2.63-3.83,11,11,0,0,1-.67-5.73,16.93,16.93,0,0,1,1.72-5.35,33.64,33.64,0,0,1,2.3-3.82,12.05,12.05,0,0,1,1.07-1.4,3.18,3.18,0,0,1,1.16-.83,1.51,1.51,0,0,1,.94-.06c.2.07.28.16.26.2a2.32,2.32,0,0,0-.89.43,3.92,3.92,0,0,0-.71.86c-.24.38-.46.87-.74,1.44-.55,1.11-1.22,2.42-1.84,3.89A19.12,19.12,0,0,0,21,351.4a10.58,10.58,0,0,0,.45,4.84,13.36,13.36,0,0,0,2,3.55c.73.95,1.4,1.68,1.85,2.21l.14.16C27.11,360,28.87,358.69,29.16,359Zm-.73-51a16.93,16.93,0,0,1-1-2.5,21,21,0,0,0-3.81-6.06A19.6,19.6,0,0,0,20,296.19a20,20,0,0,0-2.32-1.39c-.41-.22-.86-.39-1.29-.59a7,7,0,0,0-1.29-.42,3.24,3.24,0,0,0-2.33.18c-.56.32-.83,1.08-1,2.18-.44,2.23-.78,4.48-1,6.74-.09,1-.12,1.95-.19,2.91s0,1.9,0,2.84c0,1.87.06,3.69.2,5.45a96.24,96.24,0,0,0,1.2,9.59c.81,4.62,1.73,8.23,2.24,10.46.23-.94.5-1.87.8-2.8s.58-1.9.77-2.76a12.16,12.16,0,0,0,.33-2.41,26.37,26.37,0,0,1,.24-3.76c.18-.9.44-1.35.53-1.33s.06.52.11,1.38.26,2.06.41,3.68a11.68,11.68,0,0,1-.07,2.71,23.45,23.45,0,0,1-.61,3c-.52,2-1,4.19-1.42,6.52a78.93,78.93,0,0,0-1,9.94c-.11,2.81-.06,5-.15,6.2h0a.14.14,0,0,1,0,.07h-.7a29.37,29.37,0,0,1-.83-6.27A48.15,48.15,0,0,1,13.25,338c.16-.85.34-1.7.54-2.54-.26-.5-.37-.78-.34-.86l-.3-.77c-.29-.72-.57-1.59-.9-2.57s-.66-2.09-1-3.31-.68-2.55-1-4A78.19,78.19,0,0,1,8.7,314.2c-.18-1.8-.27-3.67-.3-5.6v-2.94c0-1,.09-2,.19-3a63.75,63.75,0,0,1,1-7,8.71,8.71,0,0,1,.55-1.8,3.78,3.78,0,0,1,1.44-1.65,5,5,0,0,1,3.81-.33,9.67,9.67,0,0,1,1.59.56c.47.24.95.45,1.39.71a19.53,19.53,0,0,1,2.47,1.63,21.53,21.53,0,0,1,3.72,3.73,20.77,20.77,0,0,1,2.26,3.68,18.15,18.15,0,0,1,1.14,3A6.29,6.29,0,0,1,28.43,308Zm40.45-66.81q-8.17,4.92-16.48,9.61a4.42,4.42,0,0,1-3.07.85,4.51,4.51,0,0,1-1.88-1.19l-5.2-4.72a9.16,9.16,0,0,0,2.5-.49,2.82,2.82,0,0,1-1.22-2c1.94-.65,2.37-6.09,3-8.06a33,33,0,0,1,5.94-11.32l.16,1.57a55.09,55.09,0,0,1,7.56-7.71,3.87,3.87,0,0,1-.27,1.35,13.76,13.76,0,0,1,6.5-5.55l4.11-1.07-.5,1.17a38.39,38.39,0,0,0,4.66-1.75.24.24,0,0,1,.25-.11l-.25.11a.5.5,0,0,0,.13.66,1.23,1.23,0,0,0,1.06,0,64.42,64.42,0,0,1,10-2.76l-.59,1.44,1.57-.12a5.56,5.56,0,0,0-1.65,3l17.2-2.95-.06,1.33a66.49,66.49,0,0,0,19.45,2.26l-.94,1.22h4.07a1.48,1.48,0,0,1,1.15.34.6.6,0,0,1-.15.86h6.38c.41,0,.9.05,1.1.4a.4.4,0,0,1-.09.46,75.88,75.88,0,0,1,10.11-.21,1.91,1.91,0,0,1-1.59,1.43l4.71.78-.72,2.22a3.52,3.52,0,0,1,3.92,1.82,1.64,1.64,0,0,1,1.05.66,8.9,8.9,0,0,1-2.33,2.29c-.68.45-1.41.8-2.13,1.18-2.74,1.41-5.39,3.07-8.35,3.91-5,1.41-10.31.34-15.39-.74a5.93,5.93,0,0,1-1.77-.58,9.05,9.05,0,0,0-1-.59,3.51,3.51,0,0,0-1.37-.16c-2.58.06-5.15.19-7.73.39-6.76.56-13.46,1.67-20.16,2.78A61.43,61.43,0,0,0,79,235.9,64.39,64.39,0,0,0,68.88,241.19Zm45.72,27.47.24-.42a3.57,3.57,0,0,1,.42.54Zm21.25-10.83,0,0c-1.26.44-2.73.93-4.39,1.48l-2.58.84-.05.08-2.45.78s0,0,0,0c-1.63.51-3.35,1.05-5.18,1.6-.55.17-1.12.33-1.69.49-.75.22-1.52.44-2.31.65l.1-.23c.06-.21.13-.41.2-.6-.07.2-.14.38-.21.53l-.1.23a86.78,86.78,0,0,1-8.87,2,59.35,59.35,0,0,1-6.67.7l0,0H99.77l0,0a33.7,33.7,0,0,1-4.81-.32,20.18,20.18,0,0,1-3-.51,27.07,27.07,0,0,1-2.76-.74c-.87-.31-1.72-.59-2.51-.9s-1.54-.65-2.23-1a32,32,0,0,1-6-3.9h0l-.13-.1-.07-.06.16-.21.29-.35,0,0a11.65,11.65,0,0,1,1.07-1.15l1.07-1c.36-.35.87-.71,1.36-1.11a33.92,33.92,0,0,1,3.51-2.45,19.9,19.9,0,0,1,2.21-1.15c.79-.35,1.62-.73,2.49-1.06a44.33,44.33,0,0,1,5.73-1.71,48.13,48.13,0,0,1,6.53-.9,50.69,50.69,0,0,1,7.08.11,56.88,56.88,0,0,1,8,1.36c.09.28.18.63.24.89s.13.54.2.82l.06.34a58.88,58.88,0,0,0-8.67-1.51,53,53,0,0,0-6.79-.14,48.46,48.46,0,0,0-6,.72v.07a9.44,9.44,0,0,0-.18,1.43,19.12,19.12,0,0,0,.65,7.18,17.87,17.87,0,0,0,2.68,5.32h.1A18,18,0,0,1,97.39,259a19.12,19.12,0,0,1-.65-7.22c.05-.54.12-1,.18-1.43a48.62,48.62,0,0,1,6-.72,53,53,0,0,1,6.79.14,58.07,58.07,0,0,1,8.61,1.5l0-.3c-.07-.3-.1-.5-.17-.82s-.15-.61-.24-.89l1.47.38h0c1.31.36,2.58.74,3.79,1.15l.41.14a0,0,0,0,0,0,0c.77.27,1.51.54,2.24.82l.07.06c2.54,1,5,2.09,7.45,3.31.7.31,1.34.63,2,1l.72.46h0l1,.65.13.11Zm4.28,78.26a22,22,0,0,0,1,4.33,11.56,11.56,0,0,0,1.78,3.32,7.73,7.73,0,0,0,4.5,2.83c1.28.25,2.07.19,2.09.25s-.15.18-.51.32a4.64,4.64,0,0,1-1.66.24,6.82,6.82,0,0,1-2.62-.6,8.48,8.48,0,0,1-2.91-2.09,12.21,12.21,0,0,1-2.25-3.66,22,22,0,0,1-1.27-4.66,27.81,27.81,0,0,1,.37-10.94,27.1,27.1,0,0,1,11-16.15,23.58,23.58,0,0,1,5.29-2.76,5.26,5.26,0,0,1,2.13-.52c0,.14-.65.46-1.84,1.14a34.08,34.08,0,0,0-4.77,3.22,29.93,29.93,0,0,0-5.71,6.18,28,28,0,0,0-4.14,9.35A28.47,28.47,0,0,0,140.13,336.09ZM169,340a21.32,21.32,0,0,1-5.91,2.88,20,20,0,0,1-4.47.91,9.75,9.75,0,0,1-5.15-.57,4.71,4.71,0,0,1-2.19-2.11,5.54,5.54,0,0,1-.53-3,5.91,5.91,0,0,1,1.18-2.92,6.91,6.91,0,0,1,2.47-1.95,9.26,9.26,0,0,1,6.22-.49,17.7,17.7,0,0,1,5.67,2.68c1.24.84,2.4,1.75,3.57,2.62l-.46.36.52-.38c.3.23.61.45.91.66-.25.21-.47.39-.78.63s-.66.47-1,.7l-1-.77h0Zm14.13,2.88a8.4,8.4,0,0,1-3.4,1.13,10.49,10.49,0,0,1-3.53-.23,17.2,17.2,0,0,1-6.06-2.92c-.37-.26-.72-.53-1.07-.79.34-.23.73-.5,1-.7s.52-.42.77-.63l.52.37a15.18,15.18,0,0,0,5.32,2.57A7.1,7.1,0,0,0,182,341a23.32,23.32,0,0,0,3.88-3.48l1,.85.68.53A26.12,26.12,0,0,1,183.12,342.84Zm22.58-.39a5.81,5.81,0,0,1-2.07,1.74,7.45,7.45,0,0,1-4.83.59,15.37,15.37,0,0,1-4-1.36,32.15,32.15,0,0,1-3.2-1.75,45,45,0,0,1-4-2.81l.06-.06-.66-.51-1-.8.56-.52h0a15.48,15.48,0,0,1,11.5-3.85,13.45,13.45,0,0,1,2.9.51,9.92,9.92,0,0,1,2.7,1.14,7.65,7.65,0,0,1,2.2,2,4.73,4.73,0,0,1,.87,2.91A4.68,4.68,0,0,1,205.7,342.45Zm14.86-7.86a31.09,31.09,0,0,1-.64,5,18.49,18.49,0,0,1-1.49,4.41,13.11,13.11,0,0,1-2.35,3.36,10.31,10.31,0,0,1-5,3,5.22,5.22,0,0,1-1.58.18c-.37,0-.54,0-.56-.15s.71-.3,1.87-.83a11.29,11.29,0,0,0,4.12-3.26,12.75,12.75,0,0,0,1.84-3.12,19.71,19.71,0,0,0,1.19-4.06,33.85,33.85,0,0,0,.48-4.72,38,38,0,0,0-.17-5.12,41.36,41.36,0,0,0-.83-5.06,39.51,39.51,0,0,0-1.36-4.59c-.27-.72-.54-1.41-.82-2.08s-.59-1.3-.88-1.92-.59-1.18-.9-1.76-.59-1.09-.91-1.58c-.59-1-1.18-1.89-1.72-2.64s-1-1.39-1.41-1.93a6.13,6.13,0,0,1-1.16-1.72,6.47,6.47,0,0,1,1.69,1.24c.47.48,1.12,1,1.71,1.76s1.3,1.53,2,2.53c.37.48.7,1,1.07,1.57a17.07,17.07,0,0,1,1.06,1.76c.34.66.61,1.33,1,2a18.23,18.23,0,0,1,1,2.14,37.05,37.05,0,0,1,1.59,4.77,34.52,34.52,0,0,1,1,5.33A36,36,0,0,1,220.56,334.59ZM278,259l-.28,0c.57.65.83,1,.77,1.08s-.56-.27-1.41-.93a4.06,4.06,0,0,0-.65.27,24.87,24.87,0,0,0-2.39,1.4,17.83,17.83,0,0,1-3.41,1.91,32.41,32.41,0,0,1-9.85,1.9,68.63,68.63,0,0,1-12.15-.66c-4.25-.57-8.25-1.16-11.91-1.72s-6.94-1.1-9.69-1.57L223.3,260c-.77-.18-1.41-.37-2-.53-.71.56-1.11.85-1.19.76s.15-.37.59-.91l-.18,0a6,6,0,0,0-1.69-.16c-.38,0-.57.13-.62.08s.11-.25.53-.43a4.31,4.31,0,0,1,1.88-.21,5.91,5.91,0,0,1,.7,0,37.73,37.73,0,0,1,5.79-5,41.27,41.27,0,0,1,9.37-4.86,37.21,37.21,0,0,1,25.54-.06,41.27,41.27,0,0,1,9.39,4.82,36.93,36.93,0,0,1,5.43,4.54l.35.37a3.23,3.23,0,0,1,.87.1,1.09,1.09,0,0,1,.45.27c.09.09.11.15.09.15S278.37,259,278,259Zm27.59-22.44c-.31.43-1,.32-1.53.15-10.81-3.49-21.93-5.91-33-8.34-3.61-.78-7.49-1.55-10.9-.14a3.66,3.66,0,0,1-4.44-.32c-2.94-1.46-6.4-1.2-9.67-.9l-20.75,2c-2.73.25-5.67.45-8-1-2.61-1.57-3.81-4.74-6.1-6.76l1.07.69c-.31-.19,2.08-1.66,2-1.56.59-1.22-.06-2.59-.4-3.88l2.58-.09.19-1.57a2.75,2.75,0,0,0,1.58.1l.21-1.64a3.85,3.85,0,0,0,2.33.79A4.59,4.59,0,0,0,221,212l3.06-.1-1-1.12c4.33,1.95,10-2.06,13.91.7l-.94-1.59,15.84.67.48-1.27a18.47,18.47,0,0,0,4.46,1l-.46-1.78a23.35,23.35,0,0,0,7.31,2.31l-.75-1.4a34.46,34.46,0,0,0,9.26,1.14l1.26.05,4.75.16a3.39,3.39,0,0,0-.76-1.15l6.57,2.63-.22-2.13a97.08,97.08,0,0,1,10.22,4.4.88.88,0,0,0-.45-1.15,46.08,46.08,0,0,1,14.3,9.57c.16-.06.41.14.26.25l-.26-.25a.1.1,0,0,0-.07,0c-.14.17-.06.42,0,.62l8.39,19C312.62,240.64,309.1,238.62,305.59,236.56Zm62.46,107.51a16.78,16.78,0,0,1-1,4.53,11.55,11.55,0,0,1-2.7,4.34,9.46,9.46,0,0,1-4.53,2.48,20.61,20.61,0,0,1-4.57.46c-1.41,0-2.74,0-3.93.07a13.27,13.27,0,0,0-3.23.62,9.46,9.46,0,0,0-2.41,1.18,6.42,6.42,0,0,0-1.44,1.41,16,16,0,0,0-.88,1.54c-.05,0-.05-.18-.05-.51a4.42,4.42,0,0,1,.41-1.37,6.19,6.19,0,0,1,1.41-1.81,9.71,9.71,0,0,1,2.56-1.59,13.42,13.42,0,0,1,3.51-1c1.28-.18,2.62-.23,4-.33a20,20,0,0,0,4.16-.58,7.85,7.85,0,0,0,3.63-2,10,10,0,0,0,2.25-3.62,16.66,16.66,0,0,0,.95-4,29.33,29.33,0,0,0-.16-7.19,42.08,42.08,0,0,0-1-4.82,7,7,0,0,1-.34-1.84c.05,0,.17.1.36.36a7.34,7.34,0,0,1,.72,1.2,20.84,20.84,0,0,1,1.69,4.83A25.51,25.51,0,0,1,368.05,344.07Zm9.24-9.38v0l0,0Zm.89-21.46c-.66,5.21-1.58,9.77-2.11,13.71-.09.66-.17,1.29-.24,1.9l0,0c-.14,1.2-.26,2.35-.33,3.35v.45a.86.86,0,0,1-.07-.1c-.26-.49-.5-1-.74-1.49v0c-.32-.69-.63-1.41-1-2.13a42.32,42.32,0,0,0-2.43-4.09c-1.88-2.95-3.45-5.7-4.52-7.74s-1.63-3.36-1.43-3.49,1.16.93,2.59,2.74,3.27,4.38,5.18,7.32a28.81,28.81,0,0,1,1.87,3.16c.38-3.93,1.15-8.56,1.69-13.66a61.78,61.78,0,0,0,.31-8,34.89,34.89,0,0,0-1.28-8.43,23.33,23.33,0,0,0-1.52-4l-.47-.94-.53-.89a9.48,9.48,0,0,0-1.14-1.62,7.88,7.88,0,0,0-2.91-2.23,3.34,3.34,0,0,0-3,.17,11.58,11.58,0,0,0-2.52,2.42c-.8.92-1.53,1.84-2.24,2.74a58.72,58.72,0,0,0-3.66,5.2,80.8,80.8,0,0,0-4.51,8.08,13.81,13.81,0,0,1-1.62,3,10.45,10.45,0,0,1,.9-3.34,55.81,55.81,0,0,1,4-8.5,63.12,63.12,0,0,1,3.55-5.47c.69-.94,1.43-1.87,2.22-2.87a12.83,12.83,0,0,1,2.92-2.87,5.25,5.25,0,0,1,2.27-.74,5.56,5.56,0,0,1,2.39.37,9.46,9.46,0,0,1,3.69,2.74,11.21,11.21,0,0,1,1.33,1.88l.58,1,.5,1a24.76,24.76,0,0,1,1.61,4.33,35.69,35.69,0,0,1,1.16,8.9A61.66,61.66,0,0,1,378.18,313.23Z"/><path class="cls-4" d="M261.47,250.38a39.47,39.47,0,0,0-12.2-2,38.94,38.94,0,0,0-7,.66c0,.12,0,.24-.05.38,0,.29-.09.61-.11,1-.07.83-.09,1.67-.08,2.5a6.49,6.49,0,0,0,.11,1.46c0,.52.13,1,.23,1.55s.22,1,.37,1.52.31.94.45,1.39a6.39,6.39,0,0,0,.52,1.21q.24.54.51,1.05l.11.22,4.55.57a79.31,79.31,0,0,0,11.82.8c.35,0,.69,0,1,0a1.06,1.06,0,0,1,.16-.54l.3-.48c.12-.19.27-.38.41-.61.31-.43.64-1,1-1.54.16-.31.34-.61.49-.95l.46-1.05a16.18,16.18,0,0,0,1-4c.06-.54.11-1,.14-1.31a.5.5,0,0,1,0-.12A43.3,43.3,0,0,0,261.47,250.38ZM257,254.77a3.88,3.88,0,0,1-4.22,3.09,3,3,0,0,1-1-.34,2.72,2.72,0,0,1-1-.48,3.69,3.69,0,0,1-1.2-4,3.82,3.82,0,0,1,7.42,1.73Z"/><path class="cls-4" d="M127.68,257.79a3.81,3.81,0,0,1-.28,1l.06,0a.06.06,0,0,1,0,0h0l-6.76,1.84-.38.11v0c.07-.34.18-.68.22-1a8,8,0,0,0,.14-1,9.8,9.8,0,0,0,.11-1.33,9.26,9.26,0,0,0,0-1.29,16.74,16.74,0,0,0-.21-2.44c-.14-.67-.26-1.3-.44-1.89h0l1.24.35a6.32,6.32,0,0,1,.62.18l.63.19,1.26.41,1.19.4h0l.36.48c.12.17.26.34.39.51a14.21,14.21,0,0,1,1.7,2.39,1.67,1.67,0,0,1,.08.2A1.93,1.93,0,0,1,127.68,257.79Z"/><path class="cls-4" d="M118.67,253.9a16.83,16.83,0,0,0-.26-2l-.1-.57h0v0a58.07,58.07,0,0,0-8.61-1.5,53,53,0,0,0-6.79-.14,48.62,48.62,0,0,0-6,.72c-.06.41-.13.89-.18,1.43a19.12,19.12,0,0,0,.65,7.22,18,18,0,0,0,2.68,5.29h1.25a61.35,61.35,0,0,0,6.63-.72c3.49-.6,6.81-1.39,9.93-2.2a8.62,8.62,0,0,0,.28-1.14l.19-.88.13-.9a7,7,0,0,0,.13-1.2,11.12,11.12,0,0,0,.06-1.16A20.55,20.55,0,0,0,118.67,253.9Zm-9.35,5.22v0a2.93,2.93,0,0,1-.41.07h0a3.33,3.33,0,0,1-1.3.28,3.46,3.46,0,1,1-.12-6.92h.29a3.39,3.39,0,0,1,1.55,6.59Z"/><path class="cls-4" d="M97.8,264.35a23.41,23.41,0,0,1-2.64-.18c-1-.05-1.92-.26-2.84-.38l-.48-.08h0l-.45-.09h-.06c-.56-.13-1.11-.28-1.64-.42-.85-.22-1.65-.46-2.42-.73s-1.5-.55-2.18-.85a44,44,0,0,1-5.89-3.08c.29-.24.64-.54,1.09-.85l1.14-.86,1.42-1a40.56,40.56,0,0,1,3.59-2l.86-.43.06,0,.63-.28.08,0,.55-.23c.78-.31,1.58-.63,2.43-.92s1.56-.51,2.35-.73l1.19-.31,1.18-.27c-.12.32-.23.65-.32,1a14.35,14.35,0,0,0-.54,3.57h0a15.13,15.13,0,0,0,.55,4.45A14.48,14.48,0,0,0,97.8,264.35Z"/><path class="cls-4" d="M226.85,257.68v.5a4.48,4.48,0,0,0,.07.64,2.13,2.13,0,0,0,.18.5l-3.63-.34-1.23-.2c1.24-1,3-2.37,5.34-3.89-.09.12-.17.26-.25.39A4.86,4.86,0,0,0,226.85,257.68Z"/><path class="cls-4" d="M276.34,258.61a1.52,1.52,0,0,0-.2.06,16,16,0,0,0-2.71,1.13,20.82,20.82,0,0,1-3.29,1.51,35.87,35.87,0,0,1-7.27,1.29l.21-.11a4.1,4.1,0,0,0,.69-.45,7.16,7.16,0,0,0,1.51-1.55,6.84,6.84,0,0,0,.68-1.09,9.52,9.52,0,0,0,.57-1.26,9.89,9.89,0,0,0,.36-1.32,9,9,0,0,0,.16-1.27,7.43,7.43,0,0,0-.19-2.15,3.69,3.69,0,0,0-.24-.78,1.34,1.34,0,0,0-.07-.18,43.39,43.39,0,0,1,4.14,2.23A61.91,61.91,0,0,1,276.34,258.61Z"/><path class="cls-4" d="M242.48,261.09l-5.5-.69-5.58-.63-1.18-.53c-.44-.21-1-.47-1.44-.72l-.06-.08v-.76a3.25,3.25,0,0,1,.3-1.5,8,8,0,0,1,1.06-1.34,10.57,10.57,0,0,1,1.29-1.12c.89-.67,1.8-1.22,2.55-1.73a14.18,14.18,0,0,0,1.25-.91c.63-.25,1.27-.48,1.91-.7a39.75,39.75,0,0,1,4.15-1.13c-.13.29-.24.59-.35.89a11,11,0,0,0-.55,2.72,15.14,15.14,0,0,0,0,1.65,14.79,14.79,0,0,0,.19,1.76A16.22,16.22,0,0,0,241,258c.18.53.38,1,.6,1.54a11.81,11.81,0,0,0,.74,1.3Z"/><path class="cls-4" d="M256.49,417.84a3.15,3.15,0,0,0-.79-2.32c-.55-.46-1.33-.51-1.92-.91-1.41-1-.9-3.09-.66-4.77.54-3.94-1.42-7.88-4.23-10.68s-6.4-4.67-9.93-6.49c-6.53-3.36-13.35-6.81-20.69-7-1.69,0-3.37.1-5.05,0a40.12,40.12,0,0,1-7-1.53,83,83,0,0,0-20.44-2.8c-13-.14-25.77,2.76-38.42,5.65l-4.11.93,1.34-.13c2.87-.26,5.81-.39,8.79-.53s6.05-.23,9.19-.23a60.36,60.36,0,0,1,9.59.82c.81.16,1.6.32,2.42.51s1.59.43,2.29.54a4,4,0,0,0,1.95-.09,15.87,15.87,0,0,0,2.12-.9,33.06,33.06,0,0,1,9.69-2.65,48.82,48.82,0,0,1,9.67,0A104.62,104.62,0,0,1,218,388.81c5.53,1.53,10.8,3.35,15.47,5.07s9.08,3.8,12.41,6.72l-.88.59h-.94l.94,0-.49.32h0l.5-.33h0l.88-.59.17.15c.19.16.34.33.52.51l0,0h.54l-.3.22c.4.39.78.78,1.13,1.16h-2.72l.29-.22-.31.22h0c-2,1.45-4.26,3-6.72,4.61a117,117,0,0,1-10.84,6.29,88.67,88.67,0,0,1-13.33,5.52c-4.84,1.57-10,2.9-15.27,4.29a110.22,110.22,0,0,1-16.8,3.23,59.42,59.42,0,0,1-8.75.23,54.66,54.66,0,0,1-8.44-1.12,99.33,99.33,0,0,1-15.24-4.68c-4.72-1.82-9.13-3.66-13.27-5.37s-8-3.35-11.47-4.9c-4.2-1.85-7.82-3.6-10.87-5.15.14,1,.33,2.12.5,3.32,1.36,9.89-.91,20.28-.81,30.29l-2-2.42a8.27,8.27,0,0,1-2.09,4,14.51,14.51,0,0,0,1.41.37c3.56.76,6.44-.4,9.83.07,2.76.38,7.49,2,10.36,2.81,2.7.81,7.48,2.2,9.4,4.19,2.86,2.95,2.47,5.1,6.86,6.9,3.63,1.5,8.19,4.23,11.93,5.24,4.35,1.18,9.11-1.46,13.31-.22,5.77,1.71,5.63,5.16,12.4,3.17,3.95-1.17,1.79-2,5.63-.94,1.66.47,1.46,2.67,4.28,2.68,2.35,0,5.15-3.51,7.43-4.17,2.81-.82,3.19,0,5.8,0,4.64,0,6.69-1,10.9-3.29,8-4.31,16.28-6.65,24.53-11.74,4.44-2.74,9.24-2.68,13.36-5.51l.63-.46Zm-46.21,30.35a16.8,16.8,0,0,1-6-4.06l-.2,3.12a10.66,10.66,0,0,1-4.47-2.2,4,4,0,0,0-.76,3.17,27.48,27.48,0,0,1-6.2-4.27,3.19,3.19,0,0,1,.08.75,3.44,3.44,0,0,1-.92,2.35,3.57,3.57,0,1,0-6.91,1.81,5.94,5.94,0,0,0-3.14-1.49,2.39,2.39,0,0,0-2.59,1.85,5,5,0,0,0-1.85-2.64c-1-.54-2.5-.09-2.58,1a9.51,9.51,0,0,1-3.28-1.51l-2.66,2.69-2.52-3.26a4.9,4.9,0,0,1-3.24,2.27,7.1,7.1,0,0,0-.51-3.52,6.18,6.18,0,0,1-5.24,1.66,27.31,27.31,0,0,0,5-11.82l-.49-.84c2.83-2.92,7.43-3.08,11.53-3q14.91.33,29.75,1.49a5.07,5.07,0,0,1,2.2.54,4.54,4.54,0,0,1,1.28,1.34C209.66,437.88,212.48,443.4,210.28,448.19Z"/><path class="cls-1" d="M269.7,425.41a19.76,19.76,0,0,1-1.42,7.67c-1.74,4.1-5.88,7.48-10.35,7.21l0-.4-1.41-22.05a3.15,3.15,0,0,0-.79-2.32c-.55-.46-1.33-.51-1.92-.91-1.41-1-.9-3.09-.66-4.77.54-3.94-1.42-7.88-4.23-10.68s-6.4-4.67-9.93-6.49c-6.53-3.36-13.35-6.81-20.69-7-1.69,0-3.37.1-5.05,0a40.12,40.12,0,0,1-7-1.53,83,83,0,0,0-20.44-2.8c-13-.14-25.77,2.76-38.42,5.65l-4.11.93h0l-9.5,2.16c-1.29.29-2.6.59-3.9.92h0a38,38,0,0,0-11,4.21,10,10,0,0,0-4.23,4.25,6.35,6.35,0,0,0-.54,2s0,0,0,.06a9.31,9.31,0,0,0,0,1.41,0,0,0,0,0,0,0,11.42,11.42,0,0,0,.08,1.28v0s0,.05,0,.08v0c.05.42.1.86.17,1.31.14,1,.33,2.12.5,3.32,1.36,9.89-.91,20.28-.81,30.29l-2-2.42a8.27,8.27,0,0,1-2.09,4,8.37,8.37,0,0,1-5.25,2.61q-2.31-5-4.64-10.08-3.26-7.06-6.55-14.13c-.44-1-1.72-2-2.32-1.16,1.61-6.6-4-13.71-1.45-20a16.75,16.75,0,0,1,3.13-4.47l9.76-11.1c-.26.39.24,1.07.78,1a2.2,2.2,0,0,0,1.41-1c5.54-6.61,13.72-10.3,21.61-13.79l15.5-6.84c1.68-.75,3.37-1.49,5.09-2.15a49.4,49.4,0,0,1,6.9-2.1,54,54,0,0,1,16.38-.95,7.27,7.27,0,0,0,1.76,5.72c5,1.36,9.44-3.18,14.22-5.18,3.23-1.35,6.81-1.53,10.31-1.56a121.88,121.88,0,0,1,12.68.57,4.58,4.58,0,0,1,2.08.55,6.31,6.31,0,0,1,1.52,1.78,8.46,8.46,0,0,0,9.47,2.86c-.76,1.43.64,3.09,2.1,3.78s3.22,1,4.17,2.35a20.63,20.63,0,0,0,1.36,2.38c1.31,1.39,3.62.77,5.44,1.33,2.2.67,3.44,3,5.36,4.23s4.11,1.36,6.26,1.75a27.26,27.26,0,0,1,11.65,5.17c1.43,1.1,2.84,2.5,3,4.29a8.47,8.47,0,0,0,.26,2.7c.41.86,1.36,1.28,2.14,1.82,4.53,3.12,3.52,9.86,3.57,15.36,0,4.48,1.12,8.87,1.74,13.3A38.19,38.19,0,0,1,269.7,425.41Z"/><path class="cls-2" d="M236.11,249.92c.11.15-.23.59-.94,1.16a14.18,14.18,0,0,1-1.25.91c-.75.51-1.66,1.06-2.55,1.73a10.57,10.57,0,0,0-1.29,1.12,8,8,0,0,0-1.06,1.34,3.25,3.25,0,0,0-.3,1.5v.76l.06.08c.46.25,1,.51,1.44.72l1.18.53.13.06c1.56.69,2.61,1.09,2.56,1.35s-1.2.33-3-.07q-.66-.15-1.47-.39a17.63,17.63,0,0,1-1.66-.63,2,2,0,0,1-.66-.47,1.21,1.21,0,0,1-.2-.3,2.13,2.13,0,0,1-.18-.5,4.48,4.48,0,0,1-.07-.64v-.5a4.86,4.86,0,0,1,.48-2.4c.08-.13.16-.27.25-.39a7.54,7.54,0,0,1,1.19-1.39,11.16,11.16,0,0,1,1.6-1.23,21.45,21.45,0,0,1,2.91-1.47C234.94,250.12,236,249.7,236.11,249.92Z"/></g></g></g></g></svg>