<svg class="svg" xmlns="http://www.w3.org/2000/svg" viewBox="0 0 32.73 38.54"><defs><style>.cls-1{fill:#594d4f;}</style></defs><g id="Calque_2" data-name="Calque 2"><g id="OBJECTS"><path class="cls-1" d="M17.11,2.38c2.29-2-1.18.79-1.65,1.15,2.16-1.65.15-.23-.36,0-1.25.67-2.52,1.31-3.75,2C4.79,9.35.34,15,0,22.88S6.29,37.42,13.74,38.42c6.92.93,16.31-3.54,17.36-11.34.22-1.61.43-3.22.65-4.83a4.37,4.37,0,0,1-.05-1c0-1.19-.06-.46-.32,2.2.14-.89.27-1.79.38-2.7.17-1.24.35-2.5.48-3.75.2-2-.55,3.39-.06.63C33.33,11.13,33.15,5,27,1.11c-3.22-2-7.21-1.07-9.89,1.27"/></g></g></svg>
