<svg xmlns="http://www.w3.org/2000/svg" viewBox="0 0 470.76 470.76"><defs><style>.cls-1{fill:#939292;}.cls-2{fill:#fcfcfc;}</style></defs><g id="Calque_2" data-name="Calque 2"><g id="Calque_1-2" data-name="Calque 1"><path d="M32.45,470.26A32,32,0,0,1,6.32,456.71L461.17,10.12a31.78,31.78,0,0,1,9.09,22.33V438.31a32,32,0,0,1-31.95,31.95Z"/><path d="M461.15,10.83a31.24,31.24,0,0,1,8.61,21.62V438.31a31.49,31.49,0,0,1-31.45,31.45H32.45A31.51,31.51,0,0,1,7,456.77L461.15,10.83m0-1.42L5.67,456.65a32.45,32.45,0,0,0,26.78,14.11H438.31a32.45,32.45,0,0,0,32.45-32.45V32.45a32.39,32.39,0,0,0-9.59-23Z"/><path class="cls-1" d="M461.17,9.41,5.67,456.65A32.3,32.3,0,0,1,0,438.31V32.45A32.45,32.45,0,0,1,32.45,0H438.31A32.37,32.37,0,0,1,461.17,9.41Z"/><path class="cls-2" d="M71.36,197.8Q84,135.63,153.13,91.35q55.44-35.58,136.42-52.2,70.89-14.52,111-6.38A70.5,70.5,0,0,1,409.1,35q3.21,1.11,3.93,12.28a89.21,89.21,0,0,1-1.79,23.51q-2.6,12.8-7.15,17.15t-44.23,17.65q-39.66,13.29-42.12,9.58-1.77-2.64,8.33-11.62t9.83-12.24q-28.61,5.2-56.69,10.07-61.39,22-107.82,53.87-59.7,40.68-67.76,80.37-2.5,12.36,8.08,14.5,18.53,3.76,74.91-22.9,36-17,97.85-52.22,51.88-29.42,54.8-30.2,6.71-1.39,17.8,9.58,7.31,7,7.73,14,.68,5.66-26.28,36.68t-52.64,60.25q-27.56,31.61-27.11,34L295.33,291q35.43-13.92,35.78-13.39,4.83,7.86-31.23,27.17l-86.61,42.11q-3.72,4.76-30.35,25.06-32.64,25-56.86,38Q91.41,429.17,75.53,426,68,424.42,65,418.06a22,22,0,0,1-1.46-14.3q4.67-22.93,49-51.13,35.9-23,54.26-27.55,5.29-1.21,49.17-47.64t40-52.26q-1-2-32.16,13.67-45,22.54-65,30.43Q118.4,285,99.44,281.11q-18.09-3.67-25.86-29.82A108.83,108.83,0,0,1,71.36,197.8Z"/></g></g></svg>